<?xml version="1.0" standalone="no"?>
<!DOCTYPE svg PUBLIC "-//W3C//DTD SVG 1.1//EN" "http://www.w3.org/Graphics/SVG/1.1/DTD/svg11.dtd" >
<svg xmlns="http://www.w3.org/2000/svg" xmlns:xlink="http://www.w3.org/1999/xlink" version="1.1">
<metadata>
Created by FontForge 20170924 at Sun Jan 21 16:06:44 2018
 By www-data
Copyright \(c\) 2017 by Doni Sukma. All rights reserved.
</metadata>
<defs>
<font id="NeufileGrotesk-Regular" horiz-adv-x="607" >
  <font-face 
    font-family="Neufile Grotesk"
    font-weight="400"
    font-stretch="normal"
    units-per-em="1000"
    panose-1="0 0 5 0 0 0 0 0 0 0"
    ascent="800"
    descent="-200"
    x-height="513"
    cap-height="725"
    bbox="-465 -213 2056 983"
    underline-thickness="50"
    underline-position="-100"
    stemh="78"
    stemv="83"
    unicode-range="U+000D-FB02"
  />
<missing-glyph horiz-adv-x="595" 
d="M45 725h507v-725h-507v725z" />
    <glyph glyph-name="f_f" unicode="ff" horiz-adv-x="644" 
d="M597 687c-81 0 -81 -57 -81 -108v-66h127v-70h-127v-443h-80v443h-241v-443h-81v443h-85v70h85v77c0 66 16 167 141 167c24 0 48 -3 66 -7v-66c-17 2 -32 3 -46 3c-80 0 -80 -57 -80 -108v-66h241v77c0 66 16 167 141 167c24 0 48 -3 66 -7v-66c-18 2 -32 3 -46 3z" />
    <glyph glyph-name="f_t" unicode="ft" horiz-adv-x="690" 
d="M658 443h-126v-286c0 -75 28 -96 82 -96c13 0 32 2 44 4v-65c-20 -5 -43 -9 -65 -9c-110 0 -141 71 -141 156v296h-257v-443h-81v443h-85v70h85v77c0 66 16 167 141 167c24 0 48 -3 66 -7v-66c-17 2 -32 3 -46 3c-80 0 -80 -57 -80 -108v-66h195c50 0 62 20 62 62v86h80
v-148h126v-70z" />
    <glyph glyph-name="fi" unicode="fi" horiz-adv-x="602" 
d="M506 513v-513h-81v443h-230v-443h-81v443h-85v70h85v77c0 66 16 167 141 167c24 0 48 -3 66 -7v-66c-17 2 -32 3 -46 3c-80 0 -80 -57 -80 -108v-66h311zM412 728h105v-84h-105v84z" />
    <glyph glyph-name="fl" unicode="fl" horiz-adv-x="586" 
d="M413 750h82v-750h-82v443h-218v-443h-81v443h-85v70h85v77c0 66 16 167 141 167c24 0 48 -3 66 -7v-66c-17 2 -31 3 -45 3c-80 0 -81 -57 -81 -108v-66h218v237z" />
    <glyph glyph-name="t_i" unicode="ti" horiz-adv-x="653" 
d="M458 728h105v-84h-105v84zM552 513v-513h-81v443h-261v-286c0 -75 28 -96 82 -96c13 0 32 2 44 4v-65c-20 -5 -43 -9 -65 -9c-110 0 -141 71 -141 156v296h-108v70h46c50 0 62 20 62 62v86h80v-148h342z" />
    <glyph glyph-name=".notdef" horiz-adv-x="595" 
d="M45 725h507v-725h-507v725z" />
    <glyph glyph-name="A" unicode="A" horiz-adv-x="617" 
d="M518 0l-68 203h-285l-69 -203h-89l256 725h88l259 -725h-92zM190 277h235l-117 351z" />
    <glyph glyph-name="Aacute" unicode="&#xc1;" horiz-adv-x="617" 
d="M496 893l-189 -109l-26 41l176 132zM518 0l-68 203h-285l-69 -203h-89l256 725h88l259 -725h-92zM190 277h235l-117 351z" />
    <glyph glyph-name="Abreve" unicode="&#x102;" horiz-adv-x="617" 
d="M308 784c-86 0 -144 59 -144 141h57c0 -52 39 -87 87 -87c49 0 88 35 88 87h57c0 -82 -59 -141 -145 -141zM518 0l-68 203h-285l-69 -203h-89l256 725h88l259 -725h-92zM190 277h235l-117 351z" />
    <glyph glyph-name="Acircumflex" unicode="&#xc2;" horiz-adv-x="617" 
d="M309 894l-106 -110l-41 38l119 124h57l118 -123l-42 -39zM518 0l-68 203h-285l-69 -203h-89l256 725h88l259 -725h-92zM190 277h235l-117 351z" />
    <glyph glyph-name="Adieresis" unicode="&#xc4;" horiz-adv-x="617" 
d="M260 902v-85h-101v85h101zM456 902v-85h-101v85h101zM518 0l-68 203h-285l-69 -203h-89l256 725h88l259 -725h-92zM190 277h235l-117 351z" />
    <glyph glyph-name="Agrave" unicode="&#xc0;" horiz-adv-x="617" 
d="M336 825l-27 -41l-189 109l39 64zM518 0l-68 203h-285l-69 -203h-89l256 725h88l259 -725h-92zM190 277h235l-117 351z" />
    <glyph glyph-name="Amacron" unicode="&#x100;" horiz-adv-x="617" 
d="M446 881v-56h-275v56h275zM518 0l-68 203h-285l-69 -203h-89l256 725h88l259 -725h-92zM190 277h235l-117 351z" />
    <glyph glyph-name="Aogonek" unicode="&#x104;" horiz-adv-x="617" 
d="M588 -143c7 0 17 1 24 3v-46c-7 -2 -21 -5 -36 -5c-64 0 -96 38 -96 85c0 38 20 77 63 106h-25l-68 203h-285l-69 -203h-89l256 725h88l259 -725c-48 -21 -72 -57 -72 -94c0 -38 26 -49 50 -49zM190 277h235l-117 351z" />
    <glyph glyph-name="Aring" unicode="&#xc5;" horiz-adv-x="617" 
d="M518 0l-68 203h-285l-69 -203h-89l252 714c-36 17 -61 53 -61 98c0 62 42 109 110 109s111 -47 111 -109c0 -46 -26 -82 -64 -98l255 -714h-92zM308 875c-37 0 -62 -28 -62 -63c0 -34 25 -63 62 -63s62 29 62 63c0 35 -25 63 -62 63zM190 277h235l-117 351z" />
    <glyph glyph-name="Atilde" unicode="&#xc3;" horiz-adv-x="617" 
d="M238 825c-24 -1 -37 -13 -51 -32l-36 26c24 44 53 69 91 70c51 4 90 -39 134 -37c25 1 41 18 52 33l37 -27c-23 -43 -51 -68 -88 -70c-53 -3 -94 40 -139 37zM518 0l-68 203h-285l-69 -203h-89l256 725h88l259 -725h-92zM190 277h235l-117 351z" />
    <glyph glyph-name="AE" unicode="&#xc6;" horiz-adv-x="932" 
d="M881 647h-386v-247h286v-74h-286v-247h386v-79h-469v203h-247l-69 -203h-89l256 725h618v-78zM412 647h-97l-125 -370h222v370z" />
    <glyph glyph-name="B" unicode="B" horiz-adv-x="684" 
d="M521 376c74 -28 110 -93 110 -172c0 -104 -69 -204 -222 -204h-306v725h294c131 0 216 -79 216 -197c0 -66 -33 -122 -92 -152zM186 647v-239h202c92 0 141 48 141 118c0 77 -55 121 -141 121h-202zM391 80c109 0 155 50 155 123c0 89 -61 130 -155 130h-205v-253h205z
" />
    <glyph glyph-name="C" unicode="C" horiz-adv-x="687" 
d="M55 363c0 238 129 372 309 372c159 0 272 -100 283 -250h-89c-11 103 -83 170 -193 170c-147 0 -221 -117 -221 -292c0 -176 74 -293 221 -293c111 0 182 68 193 170h89c-11 -150 -125 -250 -283 -250c-180 0 -309 134 -309 373z" />
    <glyph glyph-name="Cacute" unicode="&#x106;" horiz-adv-x="687" 
d="M360 784l-26 41l176 132l39 -64zM55 363c0 238 129 372 309 372c159 0 272 -100 283 -250h-89c-11 103 -83 170 -193 170c-147 0 -221 -117 -221 -292c0 -176 74 -293 221 -293c111 0 182 68 193 170h89c-11 -150 -125 -250 -283 -250c-180 0 -309 134 -309 373z" />
    <glyph glyph-name="Ccaron" unicode="&#x10c;" horiz-adv-x="687" 
d="M213 917l43 39l104 -110l105 110l42 -39l-118 -123h-57zM55 363c0 238 129 372 309 372c159 0 272 -100 283 -250h-89c-11 103 -83 170 -193 170c-147 0 -221 -117 -221 -292c0 -176 74 -293 221 -293c111 0 182 68 193 170h89c-11 -150 -125 -250 -283 -250
c-180 0 -309 134 -309 373z" />
    <glyph glyph-name="Ccedilla" unicode="&#xc7;" horiz-adv-x="687" 
d="M365 70c111 0 182 68 193 170h89c-11 -144 -116 -242 -264 -249l-15 -29c41 7 92 -15 92 -67c0 -85 -111 -94 -159 -59v44c29 -30 106 -31 106 16c0 24 -29 46 -88 30v22l24 43c-169 10 -288 142 -288 372c0 238 129 372 309 372c159 0 272 -100 283 -250h-89
c-11 103 -83 170 -193 170c-147 0 -221 -117 -221 -292c0 -176 74 -293 221 -293z" />
    <glyph glyph-name="Cdotaccent" unicode="&#x10a;" horiz-adv-x="687" 
d="M310 816v85h101v-85h-101zM55 363c0 238 129 372 309 372c159 0 272 -100 283 -250h-89c-11 103 -83 170 -193 170c-147 0 -221 -117 -221 -292c0 -176 74 -293 221 -293c111 0 182 68 193 170h89c-11 -150 -125 -250 -283 -250c-180 0 -309 134 -309 373z" />
    <glyph glyph-name="D" unicode="D" horiz-adv-x="729" 
d="M103 0v725h210c225 0 361 -136 361 -362c0 -227 -136 -363 -361 -363h-210zM186 79h137c170 0 265 102 265 283c0 183 -94 285 -265 285h-137v-568z" />
    <glyph glyph-name="Eth" unicode="&#xd0;" horiz-adv-x="729" 
d="M313 725c225 0 361 -136 361 -362c0 -227 -136 -363 -361 -363h-210v328h-95v72h95v325h210zM323 79c170 0 265 102 265 283c0 183 -94 285 -265 285h-137v-247h135v-72h-135v-249h137z" />
    <glyph glyph-name="Dcaron" unicode="&#x10e;" horiz-adv-x="729" 
d="M138 917l43 39l104 -110l105 110l42 -39l-118 -123h-57zM103 0v725h210c225 0 361 -136 361 -362c0 -227 -136 -363 -361 -363h-210zM186 79h137c170 0 265 102 265 283c0 183 -94 285 -265 285h-137v-568z" />
    <glyph glyph-name="Dcroat" unicode="&#x110;" horiz-adv-x="729" 
d="M313 725c225 0 361 -136 361 -362c0 -227 -136 -363 -361 -363h-210v328h-95v72h95v325h210zM323 79c170 0 265 102 265 283c0 183 -94 285 -265 285h-137v-247h135v-72h-135v-249h137z" />
    <glyph glyph-name="E" unicode="E" horiz-adv-x="624" 
d="M103 0v725h469v-78h-386v-247h286v-74h-286v-247h386v-79h-469z" />
    <glyph glyph-name="Eacute" unicode="&#xc9;" horiz-adv-x="624" 
d="M311 784l-26 41l176 132l39 -64zM103 0v725h469v-78h-386v-247h286v-74h-286v-247h386v-79h-469z" />
    <glyph glyph-name="Ecaron" unicode="&#x11a;" horiz-adv-x="624" 
d="M164 917l43 39l104 -110l105 110l42 -39l-118 -123h-57zM103 0v725h469v-78h-386v-247h286v-74h-286v-247h386v-79h-469z" />
    <glyph glyph-name="Ecircumflex" unicode="&#xca;" horiz-adv-x="624" 
d="M166 822l119 124h57l118 -123l-42 -39l-105 110l-106 -110zM103 0v725h469v-78h-386v-247h286v-74h-286v-247h386v-79h-469z" />
    <glyph glyph-name="Edieresis" unicode="&#xcb;" horiz-adv-x="624" 
d="M163 817v85h101v-85h-101zM359 817v85h101v-85h-101zM103 0v725h469v-78h-386v-247h286v-74h-286v-247h386v-79h-469z" />
    <glyph glyph-name="Edotaccent" unicode="&#x116;" horiz-adv-x="624" 
d="M261 816v85h101v-85h-101zM103 0v725h469v-78h-386v-247h286v-74h-286v-247h386v-79h-469z" />
    <glyph glyph-name="Egrave" unicode="&#xc8;" horiz-adv-x="624" 
d="M313 784l-189 109l39 64l177 -132zM103 0v725h469v-78h-386v-247h286v-74h-286v-247h386v-79h-469z" />
    <glyph glyph-name="Emacron" unicode="&#x112;" horiz-adv-x="624" 
d="M175 825v56h275v-56h-275zM103 0v725h469v-78h-386v-247h286v-74h-286v-247h386v-79h-469z" />
    <glyph glyph-name="Eogonek" unicode="&#x118;" horiz-adv-x="624" 
d="M550 -143c7 0 17 1 24 3v-46c-7 -2 -21 -5 -36 -5c-64 0 -96 38 -96 85c0 38 20 77 63 106h-402v725h469v-78h-386v-247h286v-74h-286v-247h386v-79c-48 -21 -72 -57 -72 -94c0 -38 26 -49 50 -49z" />
    <glyph glyph-name="F" unicode="F" horiz-adv-x="590" 
d="M103 0v725h459v-78h-376v-283h345v-76h-345v-288h-83z" />
    <glyph glyph-name="G" unicode="G" horiz-adv-x="734" 
d="M370 -10c-200 0 -311 150 -311 369c0 242 128 376 310 376c159 0 271 -99 281 -239h-88c-15 99 -92 159 -192 159c-148 0 -222 -115 -222 -294c0 -186 79 -291 221 -291c131 0 204 89 201 221h-218v77h306v-77c0 -183 -114 -301 -288 -301z" />
    <glyph glyph-name="Gbreve" unicode="&#x11e;" horiz-adv-x="734" 
d="M513 925c0 -82 -59 -141 -145 -141s-144 59 -144 141h57c0 -52 39 -87 87 -87c49 0 88 35 88 87h57zM370 -10c-200 0 -311 150 -311 369c0 242 128 376 310 376c159 0 271 -99 281 -239h-88c-15 99 -92 159 -192 159c-148 0 -222 -115 -222 -294c0 -186 79 -291 221 -291
c131 0 204 89 201 221h-218v77h306v-77c0 -183 -114 -301 -288 -301z" />
    <glyph glyph-name="Gcommaaccent" unicode="&#x122;" horiz-adv-x="734" 
d="M370 -10c-200 0 -311 150 -311 369c0 242 128 376 310 376c159 0 271 -99 281 -239h-88c-15 99 -92 159 -192 159c-148 0 -222 -115 -222 -294c0 -186 79 -291 221 -291c131 0 204 89 201 221h-218v77h306v-77c0 -183 -114 -301 -288 -301zM326 -209v25c31 0 49 23 45 53
h-45v74h84v-69c0 -70 -49 -83 -84 -83z" />
    <glyph glyph-name="Gdotaccent" unicode="&#x120;" horiz-adv-x="734" 
d="M317 816v85h101v-85h-101zM370 -10c-200 0 -311 150 -311 369c0 242 128 376 310 376c159 0 271 -99 281 -239h-88c-15 99 -92 159 -192 159c-148 0 -222 -115 -222 -294c0 -186 79 -291 221 -291c131 0 204 89 201 221h-218v77h306v-77c0 -183 -114 -301 -288 -301z" />
    <glyph glyph-name="H" unicode="H" horiz-adv-x="750" 
d="M103 0v725h83v-315h378v315h83v-725h-83v332h-378v-332h-83z" />
    <glyph glyph-name="Hbar" unicode="&#x126;" horiz-adv-x="750" 
d="M737 645v-68h-90v-577h-83v332h-378v-332h-83v577h-82v68h82v80h83v-80h378v80h83v-80h90zM564 410v167h-378v-167h378z" />
    <glyph glyph-name="I" unicode="I" horiz-adv-x="290" 
d="M187 0h-84v725h84v-725z" />
    <glyph glyph-name="Iacute" unicode="&#xcd;" horiz-adv-x="290" 
d="M144 784l-26 41l176 132l39 -64zM187 0h-84v725h84v-725z" />
    <glyph glyph-name="Icircumflex" unicode="&#xce;" horiz-adv-x="290" 
d="M-1 822l119 124h57l118 -123l-42 -39l-105 110l-106 -110zM187 0h-84v725h84v-725z" />
    <glyph glyph-name="Idieresis" unicode="&#xcf;" horiz-adv-x="290" 
d="M-4 817v85h101v-85h-101zM192 817v85h101v-85h-101zM187 0h-84v725h84v-725z" />
    <glyph glyph-name="Idotaccent" unicode="&#x130;" horiz-adv-x="290" 
d="M94 816v85h101v-85h-101zM187 0h-84v725h84v-725z" />
    <glyph glyph-name="Igrave" unicode="&#xcc;" horiz-adv-x="290" 
d="M146 784l-189 109l39 64l177 -132zM187 0h-84v725h84v-725z" />
    <glyph glyph-name="Imacron" unicode="&#x12a;" horiz-adv-x="290" 
d="M8 825v56h275v-56h-275zM187 0h-84v725h84v-725z" />
    <glyph glyph-name="Iogonek" unicode="&#x12e;" horiz-adv-x="290" 
d="M165 -143c7 0 17 1 24 3v-46c-7 -2 -21 -5 -36 -5c-64 0 -96 38 -96 85c0 38 20 77 63 106h-17v725h84v-725c-48 -21 -72 -57 -72 -94c0 -38 26 -49 50 -49z" />
    <glyph glyph-name="J" unicode="J" horiz-adv-x="540" 
d="M13 216h80c0 -86 41 -148 137 -148c91 0 137 60 137 148v509h83v-515c0 -131 -91 -220 -219 -220s-218 85 -218 226z" />
    <glyph glyph-name="K" unicode="K" horiz-adv-x="646" 
d="M632 725l-263 -323l245 -402h-101l-202 332l-127 -156v-176h-83v725h83v-423l341 423h107z" />
    <glyph glyph-name="Kcommaaccent" unicode="&#x136;" horiz-adv-x="646" 
d="M632 725l-263 -323l245 -402h-101l-202 332l-127 -156v-176h-83v725h83v-423l341 423h107zM281 -131v74h84v-69c0 -70 -49 -83 -84 -83v25c31 0 49 23 45 53h-45z" />
    <glyph glyph-name="L" unicode="L" horiz-adv-x="513" 
d="M101 0v725h83v-646h312v-79h-395z" />
    <glyph glyph-name="Lacute" unicode="&#x139;" horiz-adv-x="513" 
d="M142 784l-26 41l176 132l39 -64zM101 0v725h83v-646h312v-79h-395z" />
    <glyph glyph-name="Lcaron" unicode="&#x13d;" horiz-adv-x="513" 
d="M-5 917l43 39l104 -110l105 110l42 -39l-118 -123h-57zM101 0v725h83v-646h312v-79h-395z" />
    <glyph glyph-name="Lcommaaccent" unicode="&#x13b;" horiz-adv-x="513" 
d="M101 0v725h83v-646h312v-79h-395zM215 -209v25c31 0 49 23 45 53h-45v74h84v-69c0 -70 -49 -83 -84 -83z" />
    <glyph glyph-name="Lslash" unicode="&#x141;" horiz-adv-x="513" 
d="M184 79h312v-79h-395v336l-60 -20v74l60 21v314h83v-286l99 34v-75l-99 -34v-285z" />
    <glyph glyph-name="M" unicode="M" horiz-adv-x="841" 
d="M656 725h82v-725h-82v251c0 121 3 245 9 305l-206 -551h-78l-206 551c6 -60 9 -185 9 -305v-251h-81v725h81l236 -624z" />
    <glyph glyph-name="N" unicode="N" horiz-adv-x="731" 
d="M545 725h83v-725h-83l-359 578v-578h-83v725h83l359 -577v577z" />
    <glyph glyph-name="Nacute" unicode="&#x143;" horiz-adv-x="731" 
d="M554 893l-189 -109l-26 41l176 132zM545 725h83v-725h-83l-359 578v-578h-83v725h83l359 -577v577z" />
    <glyph glyph-name="Ncaron" unicode="&#x147;" horiz-adv-x="731" 
d="M394 794h-57l-119 123l43 39l104 -110l105 110l42 -39zM545 725h83v-725h-83l-359 578v-578h-83v725h83l359 -577v577z" />
    <glyph glyph-name="Ncommaaccent" unicode="&#x145;" horiz-adv-x="731" 
d="M545 725h83v-725h-83l-359 578v-578h-83v725h83l359 -577v577zM324 -131v74h84v-69c0 -70 -49 -83 -84 -83v25c31 0 49 23 45 53h-45z" />
    <glyph glyph-name="Eng" unicode="&#x14a;" horiz-adv-x="731" 
d="M545 725h83v-760c0 -122 -62 -168 -160 -168c-34 0 -54 6 -57 7v69s22 -6 46 -6c71 0 88 46 88 96v37l-359 578v-578h-83v725h83l359 -577v577z" />
    <glyph glyph-name="Ntilde" unicode="&#xd1;" horiz-adv-x="731" 
d="M296 825c-24 -1 -37 -13 -51 -32l-36 26c24 44 53 69 91 70c51 4 90 -39 134 -37c25 1 41 18 52 33l37 -27c-23 -43 -51 -68 -88 -70c-53 -3 -94 40 -139 37zM545 725h83v-725h-83l-359 578v-578h-83v725h83l359 -577v577z" />
    <glyph glyph-name="O" unicode="O" horiz-adv-x="723" 
d="M55 363c0 238 129 372 307 372c190 0 306 -149 306 -372c0 -238 -129 -373 -306 -373c-191 0 -307 150 -307 373zM144 363c0 -199 93 -293 218 -293c142 0 217 118 217 293c0 198 -93 292 -217 292c-143 0 -218 -116 -218 -292z" />
    <glyph glyph-name="Oacute" unicode="&#xd3;" horiz-adv-x="723" 
d="M361 784l-26 41l176 132l39 -64zM55 363c0 238 129 372 307 372c190 0 306 -149 306 -372c0 -238 -129 -373 -306 -373c-191 0 -307 150 -307 373zM144 363c0 -199 93 -293 218 -293c142 0 217 118 217 293c0 198 -93 292 -217 292c-143 0 -218 -116 -218 -292z" />
    <glyph glyph-name="Ocircumflex" unicode="&#xd4;" horiz-adv-x="723" 
d="M216 822l119 124h57l118 -123l-42 -39l-105 110l-106 -110zM55 363c0 238 129 372 307 372c190 0 306 -149 306 -372c0 -238 -129 -373 -306 -373c-191 0 -307 150 -307 373zM144 363c0 -199 93 -293 218 -293c142 0 217 118 217 293c0 198 -93 292 -217 292
c-143 0 -218 -116 -218 -292z" />
    <glyph glyph-name="Odieresis" unicode="&#xd6;" horiz-adv-x="723" 
d="M213 817v85h101v-85h-101zM409 817v85h101v-85h-101zM55 363c0 238 129 372 307 372c190 0 306 -149 306 -372c0 -238 -129 -373 -306 -373c-191 0 -307 150 -307 373zM144 363c0 -199 93 -293 218 -293c142 0 217 118 217 293c0 198 -93 292 -217 292
c-143 0 -218 -116 -218 -292z" />
    <glyph glyph-name="Ograve" unicode="&#xd2;" horiz-adv-x="723" 
d="M363 784l-189 109l39 64l177 -132zM55 363c0 238 129 372 307 372c190 0 306 -149 306 -372c0 -238 -129 -373 -306 -373c-191 0 -307 150 -307 373zM144 363c0 -199 93 -293 218 -293c142 0 217 118 217 293c0 198 -93 292 -217 292c-143 0 -218 -116 -218 -292z" />
    <glyph glyph-name="Ohungarumlaut" unicode="&#x150;" horiz-adv-x="723" 
d="M268 784l-26 41l175 132l40 -64zM448 784l-26 41l175 132l39 -64zM55 363c0 238 129 372 307 372c190 0 306 -149 306 -372c0 -238 -129 -373 -306 -373c-191 0 -307 150 -307 373zM144 363c0 -199 93 -293 218 -293c142 0 217 118 217 293c0 198 -93 292 -217 292
c-143 0 -218 -116 -218 -292z" />
    <glyph glyph-name="Omacron" unicode="&#x14c;" horiz-adv-x="723" 
d="M225 825v56h275v-56h-275zM55 363c0 238 129 372 307 372c190 0 306 -149 306 -372c0 -238 -129 -373 -306 -373c-191 0 -307 150 -307 373zM144 363c0 -199 93 -293 218 -293c142 0 217 118 217 293c0 198 -93 292 -217 292c-143 0 -218 -116 -218 -292z" />
    <glyph glyph-name="Oslash" unicode="&#xd8;" horiz-adv-x="723" 
d="M362 735c190 0 306 -149 306 -372c0 -238 -129 -373 -306 -373c-191 0 -307 150 -307 373c0 238 129 372 307 372zM144 363c0 -96 22 -167 58 -216l267 479c-31 19 -67 29 -107 29c-143 0 -218 -116 -218 -292zM362 70c142 0 217 118 217 293c0 96 -22 167 -58 215
l-268 -478c32 -20 69 -30 109 -30z" />
    <glyph glyph-name="Otilde" unicode="&#xd5;" horiz-adv-x="723" 
d="M431 788c-53 -3 -94 40 -139 37c-24 -1 -37 -13 -51 -32l-36 26c24 44 53 69 91 70c51 4 90 -39 134 -37c25 1 41 18 52 33l37 -27c-23 -43 -51 -68 -88 -70zM55 363c0 238 129 372 307 372c190 0 306 -149 306 -372c0 -238 -129 -373 -306 -373
c-191 0 -307 150 -307 373zM144 363c0 -199 93 -293 218 -293c142 0 217 118 217 293c0 198 -93 292 -217 292c-143 0 -218 -116 -218 -292z" />
    <glyph glyph-name="OE" unicode="&#x152;" horiz-adv-x="946" 
d="M55 363c0 238 129 362 325 362h514v-78h-386v-247h286v-74h-286v-247h386v-79h-515c-208 0 -324 140 -324 363zM144 363c0 -199 93 -284 235 -284h46v568h-46c-160 0 -235 -108 -235 -284z" />
    <glyph glyph-name="P" unicode="P" horiz-adv-x="654" 
d="M377 725c161 0 251 -94 251 -234c0 -145 -104 -227 -259 -226l-183 1v-266h-83v725h274zM373 341c108 0 170 61 170 152c0 98 -68 153 -170 153h-187v-305h187z" />
    <glyph glyph-name="Thorn" unicode="&#xde;" horiz-adv-x="654" 
d="M377 603c161 0 251 -94 251 -234c0 -145 -104 -227 -259 -226l-183 1v-144h-83v750h83v-147h191zM373 220c108 0 170 60 170 151c0 98 -68 153 -170 153h-187v-304h187z" />
    <glyph glyph-name="Q" unicode="Q" horiz-adv-x="724" 
d="M670 -49l-61 -56l-114 125c-39 -20 -84 -30 -133 -30c-191 0 -307 150 -307 373c0 238 129 372 307 372c190 0 306 -149 306 -372c0 -133 -40 -233 -106 -296zM144 363c0 -199 93 -293 218 -293c142 0 217 118 217 293c0 198 -93 292 -217 292
c-143 0 -218 -116 -218 -292z" />
    <glyph glyph-name="R" unicode="R" horiz-adv-x="680" 
d="M485 299l147 -299h-93l-140 287h-213v-287h-83v725h274c183 0 251 -112 251 -222c0 -89 -42 -173 -143 -204zM383 361c112 0 160 58 160 144c0 95 -60 143 -160 143h-197v-287h197z" />
    <glyph glyph-name="Racute" unicode="&#x154;" horiz-adv-x="680" 
d="M493 893l-189 -109l-26 41l176 132zM485 299l147 -299h-93l-140 287h-213v-287h-83v725h274c183 0 251 -112 251 -222c0 -89 -42 -173 -143 -204zM383 361c112 0 160 58 160 144c0 95 -60 143 -160 143h-197v-287h197z" />
    <glyph glyph-name="Rcaron" unicode="&#x158;" horiz-adv-x="680" 
d="M333 794h-57l-119 123l43 39l104 -110l105 110l42 -39zM485 299l147 -299h-93l-140 287h-213v-287h-83v725h274c183 0 251 -112 251 -222c0 -89 -42 -173 -143 -204zM383 361c112 0 160 58 160 144c0 95 -60 143 -160 143h-197v-287h197z" />
    <glyph glyph-name="Rcommaaccent" unicode="&#x156;" horiz-adv-x="680" 
d="M485 299l147 -299h-93l-140 287h-213v-287h-83v725h274c183 0 251 -112 251 -222c0 -89 -42 -173 -143 -204zM383 361c112 0 160 58 160 144c0 95 -60 143 -160 143h-197v-287h197zM298 -131v74h84v-69c0 -70 -49 -83 -84 -83v25c31 0 49 23 45 53h-45z" />
    <glyph glyph-name="S" unicode="S" horiz-adv-x="613" 
d="M47 220h83c0 -102 69 -155 183 -155c101 0 164 49 164 124c0 78 -48 108 -117 127l-103 28c-135 37 -190 104 -190 193c0 116 89 198 239 198c142 0 245 -75 247 -210h-83c-2 81 -64 136 -165 136c-94 0 -148 -47 -148 -119c0 -67 47 -96 132 -119l101 -28
c133 -36 176 -106 176 -201c0 -118 -101 -204 -255 -204c-170 0 -264 95 -264 230z" />
    <glyph glyph-name="Sacute" unicode="&#x15a;" horiz-adv-x="613" 
d="M306 784l-26 41l176 132l39 -64zM47 220h83c0 -102 69 -155 183 -155c101 0 164 49 164 124c0 78 -48 108 -117 127l-103 28c-135 37 -190 104 -190 193c0 116 89 198 239 198c142 0 245 -75 247 -210h-83c-2 81 -64 136 -165 136c-94 0 -148 -47 -148 -119
c0 -67 47 -96 132 -119l101 -28c133 -36 176 -106 176 -201c0 -118 -101 -204 -255 -204c-170 0 -264 95 -264 230z" />
    <glyph glyph-name="Scaron" unicode="&#x160;" horiz-adv-x="613" 
d="M159 917l43 39l104 -110l105 110l42 -39l-118 -123h-57zM47 220h83c0 -102 69 -155 183 -155c101 0 164 49 164 124c0 78 -48 108 -117 127l-103 28c-135 37 -190 104 -190 193c0 116 89 198 239 198c142 0 245 -75 247 -210h-83c-2 81 -64 136 -165 136
c-94 0 -148 -47 -148 -119c0 -67 47 -96 132 -119l101 -28c133 -36 176 -106 176 -201c0 -118 -101 -204 -255 -204c-170 0 -264 95 -264 230z" />
    <glyph glyph-name="Scedilla" unicode="&#x15e;" horiz-adv-x="613" 
d="M566 194c0 -112 -91 -196 -233 -203l-18 -34c41 7 92 -15 92 -67c0 -85 -111 -94 -159 -59v44c29 -30 106 -31 106 16c0 24 -29 46 -88 30v22l27 47c-159 7 -246 100 -246 230h83c0 -102 69 -155 183 -155c101 0 164 49 164 124c0 78 -48 108 -117 127l-103 28
c-135 37 -190 104 -190 193c0 116 89 198 239 198c142 0 245 -75 247 -210h-83c-2 81 -64 136 -165 136c-94 0 -148 -47 -148 -119c0 -67 47 -96 132 -119l101 -28c133 -36 176 -106 176 -201z" />
    <glyph glyph-name="Scommaaccent" unicode="&#x218;" horiz-adv-x="613" 
d="M47 220h83c0 -102 69 -155 183 -155c101 0 164 49 164 124c0 78 -48 108 -117 127l-103 28c-135 37 -190 104 -190 193c0 116 89 198 239 198c142 0 245 -75 247 -210h-83c-2 81 -64 136 -165 136c-94 0 -148 -47 -148 -119c0 -67 47 -96 132 -119l101 -28
c133 -36 176 -106 176 -201c0 -118 -101 -204 -255 -204c-170 0 -264 95 -264 230zM265 -209v25c31 0 49 23 45 53h-45v74h84v-69c0 -70 -49 -83 -84 -83z" />
    <glyph glyph-name="T" unicode="T" horiz-adv-x="543" 
d="M529 725v-74h-216v-651h-82v651h-217v74h515z" />
    <glyph glyph-name="Tbar" unicode="&#x166;" horiz-adv-x="548" 
d="M529 651h-216v-301h118v-56h-118v-294h-82v294h-118v56h118v301h-217v74h515v-74z" />
    <glyph glyph-name="Tcaron" unicode="&#x164;" horiz-adv-x="543" 
d="M300 794h-57l-119 123l43 39l104 -110l105 110l42 -39zM529 725v-74h-216v-651h-82v651h-217v74h515z" />
    <glyph glyph-name="uni0162" unicode="&#x162;" horiz-adv-x="543" 
d="M313 0h-5l-23 -43c41 7 92 -15 92 -67c0 -85 -111 -94 -159 -59v44c29 -30 106 -31 106 16c0 24 -29 46 -88 30v22l32 57h-37v651h-217v74h515v-74h-216v-651z" />
    <glyph glyph-name="uni021A" unicode="&#x21a;" horiz-adv-x="543" 
d="M14 725h515v-74h-216v-651h-82v651h-217v74zM235 -131v74h84v-69c0 -70 -49 -83 -84 -83v25c31 0 49 23 45 53h-45z" />
    <glyph glyph-name="U" unicode="U" horiz-adv-x="730" 
d="M90 259v466h83v-460c0 -116 48 -196 192 -196c133 0 192 68 192 196v460h83v-466c0 -161 -98 -269 -275 -269s-275 108 -275 269z" />
    <glyph glyph-name="Uacute" unicode="&#xda;" horiz-adv-x="730" 
d="M364 784l-26 41l176 132l39 -64zM90 259v466h83v-460c0 -116 48 -196 192 -196c133 0 192 68 192 196v460h83v-466c0 -161 -98 -269 -275 -269s-275 108 -275 269z" />
    <glyph glyph-name="Ucircumflex" unicode="&#xdb;" horiz-adv-x="730" 
d="M219 822l119 124h57l118 -123l-42 -39l-105 110l-106 -110zM90 259v466h83v-460c0 -116 48 -196 192 -196c133 0 192 68 192 196v460h83v-466c0 -161 -98 -269 -275 -269s-275 108 -275 269z" />
    <glyph glyph-name="Udieresis" unicode="&#xdc;" horiz-adv-x="730" 
d="M216 817v85h101v-85h-101zM412 817v85h101v-85h-101zM90 259v466h83v-460c0 -116 48 -196 192 -196c133 0 192 68 192 196v460h83v-466c0 -161 -98 -269 -275 -269s-275 108 -275 269z" />
    <glyph glyph-name="Ugrave" unicode="&#xd9;" horiz-adv-x="730" 
d="M366 784l-189 109l39 64l177 -132zM90 259v466h83v-460c0 -116 48 -196 192 -196c133 0 192 68 192 196v460h83v-466c0 -161 -98 -269 -275 -269s-275 108 -275 269z" />
    <glyph glyph-name="Uhungarumlaut" unicode="&#x170;" horiz-adv-x="730" 
d="M271 784l-26 41l175 132l40 -64zM451 784l-26 41l175 132l39 -64zM90 259v466h83v-460c0 -116 48 -196 192 -196c133 0 192 68 192 196v460h83v-466c0 -161 -98 -269 -275 -269s-275 108 -275 269z" />
    <glyph glyph-name="Umacron" unicode="&#x16a;" horiz-adv-x="730" 
d="M228 825v56h275v-56h-275zM90 259v466h83v-460c0 -116 48 -196 192 -196c133 0 192 68 192 196v460h83v-466c0 -161 -98 -269 -275 -269s-275 108 -275 269z" />
    <glyph glyph-name="Uogonek" unicode="&#x172;" horiz-adv-x="730" 
d="M557 725h83v-466c0 -156 -92 -262 -259 -269c-35 -21 -53 -52 -53 -84c0 -38 26 -49 50 -49c7 0 17 1 24 3v-46c-7 -2 -21 -5 -36 -5c-64 0 -96 38 -96 85c0 35 17 70 52 98c-150 16 -232 119 -232 267v466h83v-460c0 -116 48 -196 192 -196c133 0 192 68 192 196v460z
" />
    <glyph glyph-name="Uring" unicode="&#x16e;" horiz-adv-x="730" 
d="M476 812c0 -63 -50 -108 -111 -108s-110 45 -110 108c0 62 42 109 110 109s111 -47 111 -109zM427 812c0 35 -25 63 -62 63s-62 -28 -62 -63c0 -34 25 -63 62 -63s62 29 62 63zM90 259v466h83v-460c0 -116 48 -196 192 -196c133 0 192 68 192 196v460h83v-466
c0 -161 -98 -269 -275 -269s-275 108 -275 269z" />
    <glyph glyph-name="V" unicode="V" horiz-adv-x="624" 
d="M526 725h91l-257 -725h-94l-259 725h92l213 -629z" />
    <glyph glyph-name="W" unicode="W" horiz-adv-x="938" 
d="M810 725h92l-163 -725h-84c-60 197 -121 394 -181 611c-60 -217 -121 -414 -181 -611h-85l-172 725h92l127 -596c57 207 118 402 178 596h81c61 -195 121 -390 177 -595z" />
    <glyph glyph-name="Wacute" unicode="&#x1e82;" horiz-adv-x="938" 
d="M657 893l-189 -109l-26 41l176 132zM810 725h92l-163 -725h-84c-60 197 -121 394 -181 611c-60 -217 -121 -414 -181 -611h-85l-172 725h92l127 -596c57 207 118 402 178 596h81c61 -195 121 -390 177 -595z" />
    <glyph glyph-name="Wcircumflex" unicode="&#x174;" horiz-adv-x="938" 
d="M470 894l-106 -110l-41 38l119 124h57l118 -123l-42 -39zM810 725h92l-163 -725h-84c-60 197 -121 394 -181 611c-60 -217 -121 -414 -181 -611h-85l-172 725h92l127 -596c57 207 118 402 178 596h81c61 -195 121 -390 177 -595z" />
    <glyph glyph-name="Wdieresis" unicode="&#x1e84;" horiz-adv-x="938" 
d="M421 902v-85h-101v85h101zM617 902v-85h-101v85h101zM810 725h92l-163 -725h-84c-60 197 -121 394 -181 611c-60 -217 -121 -414 -181 -611h-85l-172 725h92l127 -596c57 207 118 402 178 596h81c61 -195 121 -390 177 -595z" />
    <glyph glyph-name="Wgrave" unicode="&#x1e80;" horiz-adv-x="938" 
d="M497 825l-27 -41l-189 109l39 64zM810 725h92l-163 -725h-84c-60 197 -121 394 -181 611c-60 -217 -121 -414 -181 -611h-85l-172 725h92l127 -596c57 207 118 402 178 596h81c61 -195 121 -390 177 -595z" />
    <glyph glyph-name="X" unicode="X" horiz-adv-x="630" 
d="M22 0l243 369l-234 356h100l191 -295l193 295h93l-239 -362l239 -363h-100l-196 301l-196 -301h-94z" />
    <glyph glyph-name="Y" unicode="Y" horiz-adv-x="564" 
d="M2 725h95l186 -363l184 363h95l-238 -444v-281h-85v281z" />
    <glyph glyph-name="Yacute" unicode="&#xdd;" horiz-adv-x="564" 
d="M281 784l-26 41l176 132l39 -64zM2 725h95l186 -363l184 363h95l-238 -444v-281h-85v281z" />
    <glyph glyph-name="Ycircumflex" unicode="&#x176;" horiz-adv-x="564" 
d="M136 822l119 124h57l118 -123l-42 -39l-105 110l-106 -110zM2 725h95l186 -363l184 363h95l-238 -444v-281h-85v281z" />
    <glyph glyph-name="Ydieresis" unicode="&#x178;" horiz-adv-x="564" 
d="M133 817v85h101v-85h-101zM329 817v85h101v-85h-101zM2 725h95l186 -363l184 363h95l-238 -444v-281h-85v281z" />
    <glyph glyph-name="Ygrave" unicode="&#x1ef2;" horiz-adv-x="564" 
d="M283 784l-189 109l39 64l177 -132zM2 725h95l186 -363l184 363h95l-238 -444v-281h-85v281z" />
    <glyph glyph-name="Z" unicode="Z" horiz-adv-x="577" 
d="M529 725v-68l-378 -579h374v-78h-478v68l377 580h-377v77h482z" />
    <glyph glyph-name="Zacute" unicode="&#x179;" horiz-adv-x="577" 
d="M477 893l-189 -109l-26 41l176 132zM529 725v-68l-378 -579h374v-78h-478v68l377 580h-377v77h482z" />
    <glyph glyph-name="Zcaron" unicode="&#x17d;" horiz-adv-x="577" 
d="M317 794h-57l-119 123l43 39l104 -110l105 110l42 -39zM529 725v-68l-378 -579h374v-78h-478v68l377 580h-377v77h482z" />
    <glyph glyph-name="Zdotaccent" unicode="&#x17b;" horiz-adv-x="577" 
d="M339 901v-85h-101v85h101zM529 725v-68l-378 -579h374v-78h-478v68l377 580h-377v77h482z" />
    <glyph glyph-name="a" unicode="a" horiz-adv-x="551" 
d="M502 60c5 0 13 0 19 1v-61c-15 -4 -33 -7 -45 -7c-58 0 -86 33 -86 98v1c-23 -62 -91 -102 -173 -102c-100 0 -165 59 -165 153c0 101 74 151 165 160l119 12c24 2 50 5 50 51c0 61 -45 88 -111 88c-79 0 -128 -39 -137 -99h-79c16 109 97 168 219 168
c136 0 191 -70 191 -176v-241c0 -35 10 -46 33 -46zM389 228v27l-147 -12c-77 -7 -108 -43 -108 -96c0 -57 41 -87 99 -87c93 0 156 72 156 168z" />
    <glyph glyph-name="aacute" unicode="&#xe1;" horiz-adv-x="551" 
d="M466 681l-189 -109l-26 41l176 132zM502 60c5 0 13 0 19 1v-61c-15 -4 -33 -7 -45 -7c-58 0 -86 33 -86 98v1c-23 -62 -91 -102 -173 -102c-100 0 -165 59 -165 153c0 101 74 151 165 160l119 12c24 2 50 5 50 51c0 61 -45 88 -111 88c-79 0 -128 -39 -137 -99h-79
c16 109 97 168 219 168c136 0 191 -70 191 -176v-241c0 -35 10 -46 33 -46zM389 228v27l-147 -12c-77 -7 -108 -43 -108 -96c0 -57 41 -87 99 -87c93 0 156 72 156 168z" />
    <glyph glyph-name="abreve" unicode="&#x103;" horiz-adv-x="551" 
d="M278 572c-86 0 -144 59 -144 141h57c0 -52 39 -87 87 -87c49 0 88 35 88 87h57c0 -82 -59 -141 -145 -141zM502 60c5 0 13 0 19 1v-61c-15 -4 -33 -7 -45 -7c-58 0 -86 33 -86 98v1c-23 -62 -91 -102 -173 -102c-100 0 -165 59 -165 153c0 101 74 151 165 160l119 12
c24 2 50 5 50 51c0 61 -45 88 -111 88c-79 0 -128 -39 -137 -99h-79c16 109 97 168 219 168c136 0 191 -70 191 -176v-241c0 -35 10 -46 33 -46zM389 228v27l-147 -12c-77 -7 -108 -43 -108 -96c0 -57 41 -87 99 -87c93 0 156 72 156 168z" />
    <glyph glyph-name="acircumflex" unicode="&#xe2;" horiz-adv-x="551" 
d="M279 682l-106 -110l-41 38l119 124h57l118 -123l-42 -39zM502 60c5 0 13 0 19 1v-61c-15 -4 -33 -7 -45 -7c-58 0 -86 33 -86 98v1c-23 -62 -91 -102 -173 -102c-100 0 -165 59 -165 153c0 101 74 151 165 160l119 12c24 2 50 5 50 51c0 61 -45 88 -111 88
c-79 0 -128 -39 -137 -99h-79c16 109 97 168 219 168c136 0 191 -70 191 -176v-241c0 -35 10 -46 33 -46zM389 228v27l-147 -12c-77 -7 -108 -43 -108 -96c0 -57 41 -87 99 -87c93 0 156 72 156 168z" />
    <glyph glyph-name="adieresis" unicode="&#xe4;" horiz-adv-x="551" 
d="M230 690v-85h-101v85h101zM426 690v-85h-101v85h101zM502 60c5 0 13 0 19 1v-61c-15 -4 -33 -7 -45 -7c-58 0 -86 33 -86 98v1c-23 -62 -91 -102 -173 -102c-100 0 -165 59 -165 153c0 101 74 151 165 160l119 12c24 2 50 5 50 51c0 61 -45 88 -111 88
c-79 0 -128 -39 -137 -99h-79c16 109 97 168 219 168c136 0 191 -70 191 -176v-241c0 -35 10 -46 33 -46zM389 228v27l-147 -12c-77 -7 -108 -43 -108 -96c0 -57 41 -87 99 -87c93 0 156 72 156 168z" />
    <glyph glyph-name="agrave" unicode="&#xe0;" horiz-adv-x="551" 
d="M306 613l-27 -41l-189 109l39 64zM502 60c5 0 13 0 19 1v-61c-15 -4 -33 -7 -45 -7c-58 0 -86 33 -86 98v1c-23 -62 -91 -102 -173 -102c-100 0 -165 59 -165 153c0 101 74 151 165 160l119 12c24 2 50 5 50 51c0 61 -45 88 -111 88c-79 0 -128 -39 -137 -99h-79
c16 109 97 168 219 168c136 0 191 -70 191 -176v-241c0 -35 10 -46 33 -46zM389 228v27l-147 -12c-77 -7 -108 -43 -108 -96c0 -57 41 -87 99 -87c93 0 156 72 156 168z" />
    <glyph glyph-name="amacron" unicode="&#x101;" horiz-adv-x="551" 
d="M416 669v-56h-275v56h275zM502 60c5 0 13 0 19 1v-61c-15 -4 -33 -7 -45 -7c-58 0 -86 33 -86 98v1c-23 -62 -91 -102 -173 -102c-100 0 -165 59 -165 153c0 101 74 151 165 160l119 12c24 2 50 5 50 51c0 61 -45 88 -111 88c-79 0 -128 -39 -137 -99h-79
c16 109 97 168 219 168c136 0 191 -70 191 -176v-241c0 -35 10 -46 33 -46zM389 228v27l-147 -12c-77 -7 -108 -43 -108 -96c0 -57 41 -87 99 -87c93 0 156 72 156 168z" />
    <glyph glyph-name="aogonek" unicode="&#x105;" horiz-adv-x="551" 
d="M494 -6c-39 -21 -59 -54 -59 -87c0 -38 26 -49 50 -49c7 0 17 1 24 3v-46c-7 -2 -21 -5 -36 -5c-64 0 -96 38 -96 85c0 37 20 76 60 104c-31 13 -47 44 -47 92v1c-23 -62 -91 -102 -173 -102c-100 0 -165 59 -165 153c0 101 74 151 165 160l119 12c24 2 50 5 50 51
c0 61 -45 88 -111 88c-79 0 -128 -39 -137 -99h-79c16 109 97 168 219 168c136 0 191 -70 191 -176v-241c0 -35 10 -46 33 -46c5 0 13 0 19 1v-61zM389 228v27l-147 -12c-77 -7 -108 -43 -108 -96c0 -57 41 -87 99 -87c93 0 156 72 156 168z" />
    <glyph glyph-name="aring" unicode="&#xe5;" horiz-adv-x="551" 
d="M502 60c5 0 13 0 19 1v-61c-15 -4 -33 -7 -45 -7c-58 0 -86 33 -86 98v1c-23 -62 -91 -102 -173 -102c-100 0 -165 59 -165 153c0 101 74 151 165 160l119 12c24 2 50 5 50 51c0 61 -45 88 -111 88c-79 0 -128 -39 -137 -99h-79c13 87 66 142 149 161
c-24 19 -40 49 -40 84c0 62 42 109 110 109s111 -47 111 -109c0 -36 -16 -65 -41 -85c85 -21 121 -83 121 -168v-241c0 -35 10 -46 33 -46zM278 663c-37 0 -62 -28 -62 -63c0 -34 25 -63 62 -63s62 29 62 63c0 35 -25 63 -62 63zM389 228v27l-147 -12
c-77 -7 -108 -43 -108 -96c0 -57 41 -87 99 -87c93 0 156 72 156 168z" />
    <glyph glyph-name="atilde" unicode="&#xe3;" horiz-adv-x="551" 
d="M208 613c-24 -1 -37 -13 -51 -32l-36 26c24 44 53 69 91 70c51 4 90 -39 134 -37c25 1 41 18 52 33l37 -27c-23 -43 -51 -68 -88 -70c-53 -3 -94 40 -139 37zM502 60c5 0 13 0 19 1v-61c-15 -4 -33 -7 -45 -7c-58 0 -86 33 -86 98v1c-23 -62 -91 -102 -173 -102
c-100 0 -165 59 -165 153c0 101 74 151 165 160l119 12c24 2 50 5 50 51c0 61 -45 88 -111 88c-79 0 -128 -39 -137 -99h-79c16 109 97 168 219 168c136 0 191 -70 191 -176v-241c0 -35 10 -46 33 -46zM389 228v27l-147 -12c-77 -7 -108 -43 -108 -96c0 -57 41 -87 99 -87
c93 0 156 72 156 168z" />
    <glyph glyph-name="ae" unicode="&#xe6;" horiz-adv-x="894" 
d="M627 60c68 0 114 34 129 88h83c-22 -100 -105 -158 -212 -158c-93 0 -162 43 -199 120c-30 -72 -101 -120 -195 -120c-107 0 -179 62 -179 155c0 95 73 160 193 160h95c35 0 47 16 47 42v15c0 59 -45 92 -113 92c-74 0 -124 -39 -133 -99h-80c16 107 100 168 214 168
c82 0 142 -31 173 -84c40 55 102 84 177 84c132 0 215 -92 215 -230c0 -22 -2 -42 -4 -56h-357c1 -121 60 -177 146 -177zM624 453c-87 0 -136 -59 -142 -149h277v2c0 98 -57 147 -135 147zM394 217v21h-144c-73 0 -114 -32 -114 -88c0 -59 44 -90 106 -90
c90 0 152 66 152 157z" />
    <glyph glyph-name="b" unicode="b" horiz-adv-x="605" 
d="M343 522c128 0 211 -106 211 -266c0 -162 -83 -266 -219 -266c-83 0 -140 41 -161 100l-5 -90h-75v750h81v-333c22 63 88 105 168 105zM325 62c75 0 145 55 145 194c0 138 -69 194 -145 194c-85 0 -143 -64 -150 -160v-68c7 -95 65 -160 150 -160z" />
    <glyph glyph-name="c" unicode="c" horiz-adv-x="540" 
d="M53 255c0 171 98 268 232 268c117 0 195 -71 210 -178h-86c-9 63 -59 106 -129 106c-85 0 -143 -68 -143 -195c0 -126 58 -193 143 -193c70 0 120 43 129 104h86c-15 -106 -100 -177 -216 -177c-140 0 -226 102 -226 265z" />
    <glyph glyph-name="cacute" unicode="&#x107;" horiz-adv-x="540" 
d="M267 572l-26 41l176 132l39 -64zM53 255c0 171 98 268 232 268c117 0 195 -71 210 -178h-86c-9 63 -59 106 -129 106c-85 0 -143 -68 -143 -195c0 -126 58 -193 143 -193c70 0 120 43 129 104h86c-15 -106 -100 -177 -216 -177c-140 0 -226 102 -226 265z" />
    <glyph glyph-name="ccaron" unicode="&#x10d;" horiz-adv-x="540" 
d="M120 705l43 39l104 -110l105 110l42 -39l-118 -123h-57zM53 255c0 171 98 268 232 268c117 0 195 -71 210 -178h-86c-9 63 -59 106 -129 106c-85 0 -143 -68 -143 -195c0 -126 58 -193 143 -193c70 0 120 43 129 104h86c-15 -106 -100 -177 -216 -177
c-140 0 -226 102 -226 265z" />
    <glyph glyph-name="ccedilla" unicode="&#xe7;" horiz-adv-x="540" 
d="M280 63c70 0 120 43 129 104h86c-14 -101 -93 -171 -201 -177l-18 -33c41 7 92 -15 92 -67c0 -85 -111 -94 -159 -59v44c29 -30 106 -31 106 16c0 24 -29 46 -88 30v22l27 48c-125 11 -201 111 -201 264c0 171 98 268 232 268c117 0 195 -71 210 -178h-86
c-9 63 -59 106 -129 106c-85 0 -143 -68 -143 -195c0 -126 58 -193 143 -193z" />
    <glyph glyph-name="cdotaccent" unicode="&#x10b;" horiz-adv-x="540" 
d="M217 604v85h101v-85h-101zM53 255c0 171 98 268 232 268c117 0 195 -71 210 -178h-86c-9 63 -59 106 -129 106c-85 0 -143 -68 -143 -195c0 -126 58 -193 143 -193c70 0 120 43 129 104h86c-15 -106 -100 -177 -216 -177c-140 0 -226 102 -226 265z" />
    <glyph glyph-name="d" unicode="d" 
d="M263 -10c-124 0 -210 102 -210 264c0 161 86 268 218 268c76 0 134 -38 161 -94v322h81v-750h-75l-4 98c-21 -67 -92 -108 -171 -108zM283 62c85 0 142 65 149 160v68c-7 96 -64 160 -149 160c-93 0 -146 -77 -146 -194c0 -125 58 -194 146 -194z" />
    <glyph glyph-name="eth" unicode="&#xf0;" horiz-adv-x="563" 
d="M369 619c88 -105 142 -238 142 -368c0 -161 -97 -261 -231 -261c-133 0 -227 99 -227 248c0 143 88 253 224 253c35 0 66 -7 93 -23c-20 44 -46 85 -78 123l-142 -51v61l99 36c-42 41 -90 79 -143 113h113c39 -24 75 -53 107 -85l123 45v-62zM280 63c86 0 146 73 146 180
c0 103 -56 175 -144 175c-85 0 -146 -67 -146 -176c0 -107 58 -179 144 -179z" />
    <glyph glyph-name="dcaron" unicode="&#x10f;" 
d="M325 942l43 39l104 -110l105 110l42 -39l-118 -123h-57zM263 -10c-124 0 -210 102 -210 264c0 161 86 268 218 268c76 0 134 -38 161 -94v322h81v-750h-75l-4 98c-21 -67 -92 -108 -171 -108zM283 62c85 0 142 65 149 160v68c-7 96 -64 160 -149 160
c-93 0 -146 -77 -146 -194c0 -125 58 -194 146 -194z" />
    <glyph glyph-name="dcroat" unicode="&#x111;" 
d="M600 648v-68h-87v-580h-75l-4 98c-21 -67 -92 -108 -171 -108c-124 0 -210 102 -210 264c0 161 86 268 218 268c76 0 134 -38 161 -94v152h-175v68h175v102h81v-102h87zM432 222v68c-7 96 -64 160 -149 160c-93 0 -146 -77 -146 -194c0 -125 58 -194 146 -194
c85 0 142 65 149 160z" />
    <glyph glyph-name="e" unicode="e" horiz-adv-x="548" 
d="M282 60c68 0 114 34 129 88h83c-21 -100 -104 -158 -211 -158c-141 0 -230 99 -230 267c0 169 93 266 229 266c132 0 214 -92 214 -230c0 -22 -2 -42 -3 -56h-357c0 -119 58 -177 146 -177zM278 453c-87 0 -135 -59 -141 -149h277v2c0 98 -58 147 -136 147z" />
    <glyph glyph-name="eacute" unicode="&#xe9;" horiz-adv-x="548" 
d="M463 681l-189 -109l-26 41l176 132zM282 60c68 0 114 34 129 88h83c-21 -100 -104 -158 -211 -158c-141 0 -230 99 -230 267c0 169 93 266 229 266c132 0 214 -92 214 -230c0 -22 -2 -42 -3 -56h-357c0 -119 58 -177 146 -177zM278 453c-87 0 -135 -59 -141 -149h277v2
c0 98 -58 147 -136 147z" />
    <glyph glyph-name="ecaron" unicode="&#x11b;" horiz-adv-x="548" 
d="M303 582h-57l-119 123l43 39l104 -110l105 110l42 -39zM282 60c68 0 114 34 129 88h83c-21 -100 -104 -158 -211 -158c-141 0 -230 99 -230 267c0 169 93 266 229 266c132 0 214 -92 214 -230c0 -22 -2 -42 -3 -56h-357c0 -119 58 -177 146 -177zM278 453
c-87 0 -135 -59 -141 -149h277v2c0 98 -58 147 -136 147z" />
    <glyph glyph-name="ecircumflex" unicode="&#xea;" horiz-adv-x="548" 
d="M276 682l-106 -110l-41 38l119 124h57l118 -123l-42 -39zM282 60c68 0 114 34 129 88h83c-21 -100 -104 -158 -211 -158c-141 0 -230 99 -230 267c0 169 93 266 229 266c132 0 214 -92 214 -230c0 -22 -2 -42 -3 -56h-357c0 -119 58 -177 146 -177zM278 453
c-87 0 -135 -59 -141 -149h277v2c0 98 -58 147 -136 147z" />
    <glyph glyph-name="edieresis" unicode="&#xeb;" horiz-adv-x="548" 
d="M227 690v-85h-101v85h101zM423 690v-85h-101v85h101zM282 60c68 0 114 34 129 88h83c-21 -100 -104 -158 -211 -158c-141 0 -230 99 -230 267c0 169 93 266 229 266c132 0 214 -92 214 -230c0 -22 -2 -42 -3 -56h-357c0 -119 58 -177 146 -177zM278 453
c-87 0 -135 -59 -141 -149h277v2c0 98 -58 147 -136 147z" />
    <glyph glyph-name="edotaccent" unicode="&#x117;" horiz-adv-x="548" 
d="M325 689v-85h-101v85h101zM282 60c68 0 114 34 129 88h83c-21 -100 -104 -158 -211 -158c-141 0 -230 99 -230 267c0 169 93 266 229 266c132 0 214 -92 214 -230c0 -22 -2 -42 -3 -56h-357c0 -119 58 -177 146 -177zM278 453c-87 0 -135 -59 -141 -149h277v2
c0 98 -58 147 -136 147z" />
    <glyph glyph-name="egrave" unicode="&#xe8;" horiz-adv-x="548" 
d="M303 613l-27 -41l-189 109l39 64zM282 60c68 0 114 34 129 88h83c-21 -100 -104 -158 -211 -158c-141 0 -230 99 -230 267c0 169 93 266 229 266c132 0 214 -92 214 -230c0 -22 -2 -42 -3 -56h-357c0 -119 58 -177 146 -177zM278 453c-87 0 -135 -59 -141 -149h277v2
c0 98 -58 147 -136 147z" />
    <glyph glyph-name="emacron" unicode="&#x113;" horiz-adv-x="548" 
d="M413 669v-56h-275v56h275zM282 60c68 0 114 34 129 88h83c-21 -100 -104 -158 -211 -158c-141 0 -230 99 -230 267c0 169 93 266 229 266c132 0 214 -92 214 -230c0 -22 -2 -42 -3 -56h-357c0 -119 58 -177 146 -177zM278 453c-87 0 -135 -59 -141 -149h277v2
c0 98 -58 147 -136 147z" />
    <glyph glyph-name="eogonek" unicode="&#x119;" horiz-adv-x="548" 
d="M282 60c68 0 114 34 129 88h83c-20 -94 -95 -151 -193 -157c-21 -20 -31 -44 -31 -68c0 -38 26 -49 50 -49c7 0 17 1 24 3v-46c-7 -2 -21 -5 -36 -5c-64 0 -96 38 -96 85c0 28 11 57 34 81c-119 16 -193 112 -193 265c0 169 93 266 229 266c132 0 214 -92 214 -230
c0 -22 -2 -42 -3 -56h-357c0 -119 58 -177 146 -177zM278 453c-87 0 -135 -59 -141 -149h277v2c0 98 -58 147 -136 147z" />
    <glyph glyph-name="f" unicode="f" horiz-adv-x="322" 
d="M114 0v443h-85v70h85v77c0 66 16 167 141 167c24 0 48 -3 66 -7v-66c-17 2 -31 3 -45 3c-80 0 -81 -57 -81 -108v-66h126v-70h-126v-443h-81z" />
    <glyph glyph-name="g" unicode="g" horiz-adv-x="548" 
d="M358 84c110 0 164 -55 164 -132c0 -104 -96 -162 -248 -162c-144 0 -226 54 -226 141c0 48 28 83 69 100c-27 13 -44 42 -44 74c0 48 32 82 72 93c-46 30 -76 79 -76 143c0 105 81 182 205 182c50 0 92 -13 120 -35c15 51 57 64 91 64c10 0 21 -1 30 -3v-73
c-8 2 -15 2 -19 2c-27 0 -55 -4 -75 -20c27 -24 47 -67 47 -118c0 -103 -83 -174 -199 -174c-26 0 -49 3 -68 8c-33 0 -52 -18 -52 -45c0 -30 21 -45 67 -45h142zM271 459c-74 0 -122 -45 -122 -117c0 -69 46 -113 119 -113c74 0 120 46 120 116c0 69 -44 114 -117 114z
M276 -140c113 0 163 34 163 87c0 65 -69 66 -119 66h-123c-58 0 -74 -38 -74 -69c0 -59 54 -84 153 -84z" />
    <glyph glyph-name="gbreve" unicode="&#x11f;" horiz-adv-x="548" 
d="M269 572c-86 0 -144 59 -144 141h57c0 -52 39 -87 87 -87c49 0 88 35 88 87h57c0 -82 -59 -141 -145 -141zM358 84c110 0 164 -55 164 -132c0 -104 -96 -162 -248 -162c-144 0 -226 54 -226 141c0 48 28 83 69 100c-27 13 -44 42 -44 74c0 48 32 82 72 93
c-46 30 -76 79 -76 143c0 105 81 182 205 182c50 0 92 -13 120 -35c15 51 57 64 91 64c10 0 21 -1 30 -3v-73c-8 2 -15 2 -19 2c-27 0 -55 -4 -75 -20c27 -24 47 -67 47 -118c0 -103 -83 -174 -199 -174c-26 0 -49 3 -68 8c-33 0 -52 -18 -52 -45c0 -30 21 -45 67 -45h142z
M271 459c-74 0 -122 -45 -122 -117c0 -69 46 -113 119 -113c74 0 120 46 120 116c0 69 -44 114 -117 114zM276 -140c113 0 163 34 163 87c0 65 -69 66 -119 66h-123c-58 0 -74 -38 -74 -69c0 -59 54 -84 153 -84z" />
    <glyph glyph-name="gcommaaccent" unicode="&#x123;" horiz-adv-x="548" 
d="M311 684v-78h-84v76c0 79 48 92 84 92v-25c-32 0 -50 -23 -46 -65h46zM358 84c110 0 164 -55 164 -132c0 -104 -96 -162 -248 -162c-144 0 -226 54 -226 141c0 48 28 83 69 100c-27 13 -44 42 -44 74c0 48 32 82 72 93c-46 30 -76 79 -76 143c0 105 81 182 205 182
c50 0 92 -13 120 -35c15 51 57 64 91 64c10 0 21 -1 30 -3v-73c-8 2 -15 2 -19 2c-27 0 -55 -4 -75 -20c27 -24 47 -67 47 -118c0 -103 -83 -174 -199 -174c-26 0 -49 3 -68 8c-33 0 -52 -18 -52 -45c0 -30 21 -45 67 -45h142zM271 459c-74 0 -122 -45 -122 -117
c0 -69 46 -113 119 -113c74 0 120 46 120 116c0 69 -44 114 -117 114zM276 -140c113 0 163 34 163 87c0 65 -69 66 -119 66h-123c-58 0 -74 -38 -74 -69c0 -59 54 -84 153 -84z" />
    <glyph glyph-name="gdotaccent" unicode="&#x121;" horiz-adv-x="548" 
d="M319 689v-85h-101v85h101zM358 84c110 0 164 -55 164 -132c0 -104 -96 -162 -248 -162c-144 0 -226 54 -226 141c0 48 28 83 69 100c-27 13 -44 42 -44 74c0 48 32 82 72 93c-46 30 -76 79 -76 143c0 105 81 182 205 182c50 0 92 -13 120 -35c15 51 57 64 91 64
c10 0 21 -1 30 -3v-73c-8 2 -15 2 -19 2c-27 0 -55 -4 -75 -20c27 -24 47 -67 47 -118c0 -103 -83 -174 -199 -174c-26 0 -49 3 -68 8c-33 0 -52 -18 -52 -45c0 -30 21 -45 67 -45h142zM271 459c-74 0 -122 -45 -122 -117c0 -69 46 -113 119 -113c74 0 120 46 120 116
c0 69 -44 114 -117 114zM276 -140c113 0 163 34 163 87c0 65 -69 66 -119 66h-123c-58 0 -74 -38 -74 -69c0 -59 54 -84 153 -84z" />
    <glyph glyph-name="h" unicode="h" horiz-adv-x="609" 
d="M94 0v750h81v-331c27 62 94 104 171 104c119 0 178 -78 178 -195v-328h-81v310c0 41 -2 141 -118 141c-102 0 -150 -78 -150 -161v-290h-81z" />
    <glyph glyph-name="hbar" unicode="&#x127;" 
d="M346 523c119 0 178 -78 178 -195v-328h-81v310c0 41 -2 141 -118 141c-102 0 -150 -78 -150 -161v-290h-81v580h-80v68h80v102h81v-102h182v-68h-182v-161c27 62 94 104 171 104z" />
    <glyph glyph-name="i" unicode="i" horiz-adv-x="280" 
d="M90 644v84h105v-84h-105zM103 0v513h81v-513h-81z" />
    <glyph glyph-name="dotlessi" unicode="&#x131;" horiz-adv-x="286" 
d="M103 0v513h81v-513h-81z" />
    <glyph glyph-name="iacute" unicode="&#xed;" horiz-adv-x="286" 
d="M143 572l-26 41l176 132l39 -64zM103 0v513h81v-513h-81z" />
    <glyph glyph-name="icircumflex" unicode="&#xee;" horiz-adv-x="286" 
d="M-2 610l119 124h57l118 -123l-42 -39l-105 110l-106 -110zM103 0v513h81v-513h-81z" />
    <glyph glyph-name="idieresis" unicode="&#xef;" horiz-adv-x="286" 
d="M-5 605v85h101v-85h-101zM191 605v85h101v-85h-101zM103 0v513h81v-513h-81z" />
    <glyph glyph-name="i.loclTRK" horiz-adv-x="286" 
d="M93 604v85h101v-85h-101zM103 0v513h81v-513h-81z" />
    <glyph glyph-name="igrave" unicode="&#xec;" horiz-adv-x="286" 
d="M145 572l-189 109l39 64l177 -132zM103 0v513h81v-513h-81z" />
    <glyph glyph-name="imacron" unicode="&#x12b;" horiz-adv-x="286" 
d="M7 613v56h275v-56h-275zM103 0v513h81v-513h-81z" />
    <glyph glyph-name="iogonek" unicode="&#x12f;" horiz-adv-x="286" 
d="M93 689h101v-85h-101v85zM103 0v513h81v-513h-6c-48 -21 -72 -57 -72 -94c0 -38 26 -49 50 -49c7 0 17 1 24 3v-46c-7 -2 -21 -5 -36 -5c-64 0 -96 38 -96 85c0 38 20 77 63 106h-8z" />
    <glyph glyph-name="j" unicode="j" horiz-adv-x="298" 
d="M109 644v84h104v-84h-104zM197 -35c0 -122 -62 -168 -160 -168c-26 0 -47 3 -67 7v72c14 -4 38 -6 56 -6c72 -1 90 43 90 93v550h81v-548z" />
    <glyph glyph-name="k" unicode="k" horiz-adv-x="513" 
d="M507 513l-188 -184l180 -329h-88l-147 275l-102 -100v-175h-81v750h81v-479l245 242h100z" />
    <glyph glyph-name="kcommaaccent" unicode="&#x137;" horiz-adv-x="513" 
d="M507 513l-188 -184l180 -329h-88l-147 275l-102 -100v-175h-81v750h81v-479l245 242h100zM216 -131v74h84v-69c0 -70 -49 -83 -84 -83v25c31 0 49 23 45 53h-45z" />
    <glyph glyph-name="l" unicode="l" horiz-adv-x="265" 
d="M92 0v750h81v-750h-81z" />
    <glyph glyph-name="lacute" unicode="&#x13a;" horiz-adv-x="265" 
d="M131 810l-26 41l176 132l39 -64zM92 0v750h81v-750h-81z" />
    <glyph glyph-name="lcaron" unicode="&#x13e;" horiz-adv-x="265" 
d="M-16 943l43 39l104 -110l105 110l42 -39l-118 -123h-57zM92 0v750h81v-750h-81z" />
    <glyph glyph-name="lcommaaccent" unicode="&#x13c;" horiz-adv-x="265" 
d="M92 0v750h81v-750h-81zM90 -209v25c31 0 49 23 45 53h-45v74h84v-69c0 -70 -49 -83 -84 -83z" />
    <glyph glyph-name="lslash" unicode="&#x142;" horiz-adv-x="264" 
d="M246 473v-75l-73 -26v-372h-81v343l-74 -26v75l74 26v332h81v-303z" />
    <glyph glyph-name="m" unicode="m" horiz-adv-x="888" 
d="M633 523c103 0 170 -68 170 -185v-338h-81v323c0 92 -41 128 -106 128c-85 0 -129 -61 -129 -160v-291h-80v317c0 98 -45 134 -108 134c-82 0 -126 -61 -126 -152v-299h-81v513h70l9 -84c24 60 83 94 150 94c76 0 133 -47 149 -112c26 70 88 112 163 112z" />
    <glyph glyph-name="n" unicode="n" 
d="M92 0v513h71l10 -94c25 62 94 104 171 104c118 0 178 -76 178 -196v-327h-81v310c0 42 -5 141 -118 141c-104 0 -150 -80 -150 -161v-290h-81z" />
    <glyph glyph-name="nacute" unicode="&#x144;" 
d="M303 572l-26 41l176 132l39 -64zM92 0v513h71l10 -94c25 62 94 104 171 104c118 0 178 -76 178 -196v-327h-81v310c0 42 -5 141 -118 141c-104 0 -150 -80 -150 -161v-290h-81z" />
    <glyph glyph-name="ncaron" unicode="&#x148;" 
d="M156 705l43 39l104 -110l105 110l42 -39l-118 -123h-57zM92 0v513h71l10 -94c25 62 94 104 171 104c118 0 178 -76 178 -196v-327h-81v310c0 42 -5 141 -118 141c-104 0 -150 -80 -150 -161v-290h-81z" />
    <glyph glyph-name="ncommaaccent" unicode="&#x146;" 
d="M92 0v513h71l10 -94c25 62 94 104 171 104c118 0 178 -76 178 -196v-327h-81v310c0 42 -5 141 -118 141c-104 0 -150 -80 -150 -161v-290h-81zM262 -209v25c31 0 49 23 45 53h-45v74h84v-69c0 -70 -49 -83 -84 -83z" />
    <glyph glyph-name="eng" unicode="&#x14b;" 
d="M344 523c118 0 178 -76 178 -196v-362c0 -122 -62 -168 -160 -168c-34 0 -54 6 -57 7v69s22 -6 45 -6c73 0 91 46 91 96v347c0 42 -5 141 -118 141c-104 0 -150 -80 -150 -161v-290h-81v513h71l10 -94c25 62 94 104 171 104z" />
    <glyph glyph-name="ntilde" unicode="&#xf1;" 
d="M373 576c-53 -3 -94 40 -139 37c-24 -1 -37 -13 -51 -32l-36 26c24 44 53 69 91 70c51 4 90 -39 134 -37c25 1 41 18 52 33l37 -27c-23 -43 -51 -68 -88 -70zM92 0v513h71l10 -94c25 62 94 104 171 104c118 0 178 -76 178 -196v-327h-81v310c0 42 -5 141 -118 141
c-104 0 -150 -80 -150 -161v-290h-81z" />
    <glyph glyph-name="o" unicode="o" horiz-adv-x="563" 
d="M53 255c0 158 87 268 229 268c141 0 229 -110 229 -268c0 -166 -97 -265 -229 -265s-229 99 -229 265zM136 256c0 -124 62 -193 145 -193s145 69 145 194c0 121 -56 193 -144 193c-86 0 -146 -69 -146 -194z" />
    <glyph glyph-name="oacute" unicode="&#xf3;" horiz-adv-x="563" 
d="M281 572l-26 41l176 132l39 -64zM53 255c0 158 87 268 229 268c141 0 229 -110 229 -268c0 -166 -97 -265 -229 -265s-229 99 -229 265zM136 256c0 -124 62 -193 145 -193s145 69 145 194c0 121 -56 193 -144 193c-86 0 -146 -69 -146 -194z" />
    <glyph glyph-name="ocircumflex" unicode="&#xf4;" horiz-adv-x="563" 
d="M136 610l119 124h57l118 -123l-42 -39l-105 110l-106 -110zM53 255c0 158 87 268 229 268c141 0 229 -110 229 -268c0 -166 -97 -265 -229 -265s-229 99 -229 265zM136 256c0 -124 62 -193 145 -193s145 69 145 194c0 121 -56 193 -144 193c-86 0 -146 -69 -146 -194z
" />
    <glyph glyph-name="odieresis" unicode="&#xf6;" horiz-adv-x="563" 
d="M133 605v85h101v-85h-101zM329 605v85h101v-85h-101zM53 255c0 158 87 268 229 268c141 0 229 -110 229 -268c0 -166 -97 -265 -229 -265s-229 99 -229 265zM136 256c0 -124 62 -193 145 -193s145 69 145 194c0 121 -56 193 -144 193c-86 0 -146 -69 -146 -194z" />
    <glyph glyph-name="ograve" unicode="&#xf2;" horiz-adv-x="563" 
d="M283 572l-189 109l39 64l177 -132zM53 255c0 158 87 268 229 268c141 0 229 -110 229 -268c0 -166 -97 -265 -229 -265s-229 99 -229 265zM136 256c0 -124 62 -193 145 -193s145 69 145 194c0 121 -56 193 -144 193c-86 0 -146 -69 -146 -194z" />
    <glyph glyph-name="ohungarumlaut" unicode="&#x151;" horiz-adv-x="563" 
d="M188 572l-26 41l175 132l40 -64zM368 572l-26 41l175 132l39 -64zM53 255c0 158 87 268 229 268c141 0 229 -110 229 -268c0 -166 -97 -265 -229 -265s-229 99 -229 265zM136 256c0 -124 62 -193 145 -193s145 69 145 194c0 121 -56 193 -144 193
c-86 0 -146 -69 -146 -194z" />
    <glyph glyph-name="omacron" unicode="&#x14d;" horiz-adv-x="563" 
d="M145 613v56h275v-56h-275zM53 255c0 158 87 268 229 268c141 0 229 -110 229 -268c0 -166 -97 -265 -229 -265s-229 99 -229 265zM136 256c0 -124 62 -193 145 -193s145 69 145 194c0 121 -56 193 -144 193c-86 0 -146 -69 -146 -194z" />
    <glyph glyph-name="oslash" unicode="&#xf8;" horiz-adv-x="564" 
d="M282 523c141 0 229 -110 229 -268c0 -166 -97 -265 -229 -265s-229 99 -229 265c0 158 87 268 229 268zM282 450c-86 0 -146 -69 -146 -194c0 -23 2 -45 6 -64l260 183c-24 48 -66 75 -120 75zM281 63c83 0 145 69 145 194c0 23 -2 44 -6 64l-259 -182
c25 -50 69 -76 120 -76z" />
    <glyph glyph-name="otilde" unicode="&#xf5;" horiz-adv-x="563" 
d="M351 576c-53 -3 -94 40 -139 37c-24 -1 -37 -13 -51 -32l-36 26c24 44 53 69 91 70c51 4 90 -39 134 -37c25 1 41 18 52 33l37 -27c-23 -43 -51 -68 -88 -70zM53 255c0 158 87 268 229 268c141 0 229 -110 229 -268c0 -166 -97 -265 -229 -265s-229 99 -229 265zM136 256
c0 -124 62 -193 145 -193s145 69 145 194c0 121 -56 193 -144 193c-86 0 -146 -69 -146 -194z" />
    <glyph glyph-name="oe" unicode="&#x153;" horiz-adv-x="926" 
d="M659 60c68 0 114 34 129 88h83c-21 -100 -104 -158 -211 -158c-85 0 -151 36 -190 102c-41 -66 -108 -102 -188 -102c-132 0 -229 99 -229 265c0 158 87 268 229 268c83 0 148 -39 187 -103c40 67 107 103 190 103c132 0 214 -92 214 -230c0 -22 -2 -42 -3 -56h-357
c0 -119 58 -177 146 -177zM655 453c-87 0 -135 -59 -141 -149h277v2c0 98 -58 147 -136 147zM281 63c83 0 145 69 145 194c0 121 -56 193 -144 193c-86 0 -146 -69 -146 -194c0 -124 62 -193 145 -193z" />
    <glyph glyph-name="p" unicode="p" horiz-adv-x="605" 
d="M337 523c134 0 217 -105 217 -272c0 -155 -83 -261 -211 -261c-80 0 -145 40 -168 101v-291h-81v713h75l5 -91c24 61 88 101 163 101zM325 62c77 0 145 56 145 189c0 144 -69 200 -145 200c-85 0 -143 -65 -150 -161v-68c7 -95 65 -160 150 -160z" />
    <glyph glyph-name="thorn" unicode="&#xfe;" horiz-adv-x="605" 
d="M337 523c134 0 217 -105 217 -272c0 -155 -83 -261 -211 -261c-79 0 -143 39 -167 98v-288h-82v950h82v-324c26 59 89 97 161 97zM325 62c77 0 145 56 145 189c0 144 -69 200 -145 200c-85 0 -142 -65 -149 -161v-68c7 -95 64 -160 149 -160z" />
    <glyph glyph-name="q" unicode="q" horiz-adv-x="606" 
d="M268 524c82 0 143 -42 169 -105v95h75v-714h-81v297c-21 -64 -88 -106 -169 -106c-127 0 -211 103 -211 264s84 269 217 269zM283 452c-77 0 -146 -58 -146 -196c0 -139 69 -193 144 -193c85 0 143 65 150 161v68c-7 96 -65 160 -148 160z" />
    <glyph glyph-name="r" unicode="r" horiz-adv-x="359" 
d="M298 516c11 0 24 -1 37 -3v-73c-12 2 -19 2 -31 2c-92 0 -129 -56 -129 -148v-294h-81v513h70l10 -74c18 51 68 77 124 77z" />
    <glyph glyph-name="racute" unicode="&#x155;" horiz-adv-x="359" 
d="M403 681l-189 -109l-26 41l176 132zM174 439c18 51 68 77 124 77c11 0 24 -1 37 -3v-73c-12 2 -19 2 -31 2c-92 0 -129 -56 -129 -148v-294h-81v513h70z" />
    <glyph glyph-name="rcaron" unicode="&#x159;" horiz-adv-x="359" 
d="M243 582h-57l-119 123l43 39l104 -110l105 110l42 -39zM174 439c18 51 68 77 124 77c11 0 24 -1 37 -3v-73c-12 2 -19 2 -31 2c-92 0 -129 -56 -129 -148v-294h-81v513h70z" />
    <glyph glyph-name="rcommaaccent" unicode="&#x157;" horiz-adv-x="359" 
d="M298 516c11 0 24 -1 37 -3v-73c-12 2 -19 2 -31 2c-92 0 -129 -56 -129 -148v-294h-81v513h70l10 -74c18 51 68 77 124 77zM92 -131v74h84v-69c0 -70 -49 -83 -84 -83v25c31 0 49 23 45 53h-45z" />
    <glyph glyph-name="s" unicode="s" horiz-adv-x="496" 
d="M131 150c1 -61 48 -93 120 -93c71 0 112 32 112 81c0 55 -52 68 -75 75l-89 24c-55 15 -139 45 -139 139c0 89 73 147 182 147c112 0 186 -61 186 -152h-80c-2 56 -45 85 -107 85c-63 0 -99 -30 -99 -76c0 -48 38 -60 91 -74l90 -23c93 -25 122 -79 122 -138
c0 -95 -78 -155 -195 -155c-120 0 -198 64 -200 160h81z" />
    <glyph glyph-name="sacute" unicode="&#x15b;" horiz-adv-x="496" 
d="M248 572l-26 41l176 132l39 -64zM131 150c1 -61 48 -93 120 -93c71 0 112 32 112 81c0 55 -52 68 -75 75l-89 24c-55 15 -139 45 -139 139c0 89 73 147 182 147c112 0 186 -61 186 -152h-80c-2 56 -45 85 -107 85c-63 0 -99 -30 -99 -76c0 -48 38 -60 91 -74l90 -23
c93 -25 122 -79 122 -138c0 -95 -78 -155 -195 -155c-120 0 -198 64 -200 160h81z" />
    <glyph glyph-name="scaron" unicode="&#x161;" horiz-adv-x="496" 
d="M101 705l43 39l104 -110l105 110l42 -39l-118 -123h-57zM131 150c1 -61 48 -93 120 -93c71 0 112 32 112 81c0 55 -52 68 -75 75l-89 24c-55 15 -139 45 -139 139c0 89 73 147 182 147c112 0 186 -61 186 -152h-80c-2 56 -45 85 -107 85c-63 0 -99 -30 -99 -76
c0 -48 38 -60 91 -74l90 -23c93 -25 122 -79 122 -138c0 -95 -78 -155 -195 -155c-120 0 -198 64 -200 160h81z" />
    <glyph glyph-name="scedilla" unicode="&#x15f;" horiz-adv-x="496" 
d="M445 145c0 -89 -69 -148 -175 -154l-13 -25c41 7 92 -15 92 -67c0 -85 -111 -94 -159 -59v44c29 -30 106 -31 106 16c0 24 -29 46 -88 30v22l22 39c-109 6 -178 68 -180 159h81c1 -61 48 -93 120 -93c71 0 112 32 112 81c0 55 -52 68 -75 75l-89 24
c-55 15 -139 45 -139 139c0 89 73 147 182 147c112 0 186 -61 186 -152h-80c-2 56 -45 85 -107 85c-63 0 -99 -30 -99 -76c0 -48 38 -60 91 -74l90 -23c93 -25 122 -79 122 -138z" />
    <glyph glyph-name="scommaaccent" unicode="&#x219;" horiz-adv-x="496" 
d="M131 150c1 -61 48 -93 120 -93c71 0 112 32 112 81c0 55 -52 68 -75 75l-89 24c-55 15 -139 45 -139 139c0 89 73 147 182 147c112 0 186 -61 186 -152h-80c-2 56 -45 85 -107 85c-63 0 -99 -30 -99 -76c0 -48 38 -60 91 -74l90 -23c93 -25 122 -79 122 -138
c0 -95 -78 -155 -195 -155c-120 0 -198 64 -200 160h81zM207 -200v25c31 0 49 23 45 53h-45v74h84v-69c0 -70 -49 -83 -84 -83z" />
    <glyph glyph-name="germandbls" unicode="&#xdf;" horiz-adv-x="605" 
d="M553 215c0 -130 -96 -222 -233 -222c-27 0 -54 3 -75 7v77c14 -3 42 -6 64 -6c97 0 159 59 159 153c0 100 -70 153 -164 153h-31v73h31c75 0 114 49 114 115c0 75 -50 119 -120 119c-85 0 -126 -63 -126 -145v-539h-81v538c2 135 81 222 209 222c117 0 202 -75 202 -182
c0 -66 -31 -139 -93 -159c92 -23 144 -107 144 -204z" />
    <glyph glyph-name="t" unicode="t" horiz-adv-x="368" 
d="M271 -9c-110 0 -141 71 -141 156v296h-108v70h46c50 0 62 20 62 62v86h80v-148h126v-70h-126v-286c0 -75 28 -96 82 -96c13 0 32 2 44 4v-65c-20 -5 -43 -9 -65 -9z" />
    <glyph glyph-name="tbar" unicode="&#x167;" horiz-adv-x="368" 
d="M336 443h-126v-84h126v-73h-126v-129c0 -75 28 -96 82 -96c13 0 32 2 44 4v-65c-20 -5 -43 -9 -65 -9c-110 0 -141 71 -141 156v139h-109v73h109v84h-108v70h46c50 0 62 20 62 62v86h80v-148h126v-70z" />
    <glyph glyph-name="tcaron" unicode="&#x165;" horiz-adv-x="368" 
d="M22 853l43 39l104 -110l105 110l42 -39l-118 -123h-57zM271 -9c-110 0 -141 71 -141 156v296h-108v70h46c50 0 62 20 62 62v86h80v-148h126v-70h-126v-286c0 -75 28 -96 82 -96c13 0 32 2 44 4v-65c-20 -5 -43 -9 -65 -9z" />
    <glyph glyph-name="uni0163" unicode="&#x163;" horiz-adv-x="368" 
d="M253 -43c41 7 92 -15 92 -67c0 -85 -111 -94 -159 -59v44c29 -30 106 -31 106 16c0 24 -29 46 -88 30v22l29 51c-79 15 -103 79 -103 153v296h-108v70h46c50 0 62 20 62 62v86h80v-148h126v-70h-126v-286c0 -75 28 -96 82 -96c13 0 32 2 44 4v-65c-20 -5 -43 -9 -65 -9z
" />
    <glyph glyph-name="uni021B" unicode="&#x21b;" horiz-adv-x="368" 
d="M271 -9c-110 0 -141 71 -141 156v296h-108v70h46c50 0 62 20 62 62v86h80v-148h126v-70h-126v-286c0 -75 28 -96 82 -96c13 0 32 2 44 4v-65c-20 -5 -43 -9 -65 -9zM203 -209v25c31 0 49 23 45 53h-45v74h84v-69c0 -70 -49 -83 -84 -83z" />
    <glyph glyph-name="u" unicode="u" horiz-adv-x="592" 
d="M425 513h82v-513h-75l-6 92c-24 -62 -88 -102 -168 -102c-110 0 -173 76 -173 189v334h81v-308c0 -46 4 -143 117 -143c99 0 142 75 142 177v274z" />
    <glyph glyph-name="uacute" unicode="&#xfa;" horiz-adv-x="592" 
d="M485 681l-189 -109l-26 41l176 132zM425 513h82v-513h-75l-6 92c-24 -62 -88 -102 -168 -102c-110 0 -173 76 -173 189v334h81v-308c0 -46 4 -143 117 -143c99 0 142 75 142 177v274z" />
    <glyph glyph-name="ucircumflex" unicode="&#xfb;" horiz-adv-x="592" 
d="M298 682l-106 -110l-41 38l119 124h57l118 -123l-42 -39zM425 513h82v-513h-75l-6 92c-24 -62 -88 -102 -168 -102c-110 0 -173 76 -173 189v334h81v-308c0 -46 4 -143 117 -143c99 0 142 75 142 177v274z" />
    <glyph glyph-name="udieresis" unicode="&#xfc;" horiz-adv-x="592" 
d="M249 690v-85h-101v85h101zM445 690v-85h-101v85h101zM425 513h82v-513h-75l-6 92c-24 -62 -88 -102 -168 -102c-110 0 -173 76 -173 189v334h81v-308c0 -46 4 -143 117 -143c99 0 142 75 142 177v274z" />
    <glyph glyph-name="ugrave" unicode="&#xf9;" horiz-adv-x="592" 
d="M325 613l-27 -41l-189 109l39 64zM425 513h82v-513h-75l-6 92c-24 -62 -88 -102 -168 -102c-110 0 -173 76 -173 189v334h81v-308c0 -46 4 -143 117 -143c99 0 142 75 142 177v274z" />
    <glyph glyph-name="uhungarumlaut" unicode="&#x171;" horiz-adv-x="592" 
d="M392 681l-189 -109l-26 41l175 132zM383 572l-26 41l175 132l39 -64zM425 239v274h82v-513h-75l-6 92c-24 -62 -88 -102 -168 -102c-110 0 -173 76 -173 189v334h81v-308c0 -46 4 -143 117 -143c99 0 142 75 142 177z" />
    <glyph glyph-name="umacron" unicode="&#x16b;" horiz-adv-x="592" 
d="M435 669v-56h-275v56h275zM425 513h82v-513h-75l-6 92c-24 -62 -88 -102 -168 -102c-110 0 -173 76 -173 189v334h81v-308c0 -46 4 -143 117 -143c99 0 142 75 142 177v274z" />
    <glyph glyph-name="uogonek" unicode="&#x173;" horiz-adv-x="592" 
d="M484 -143c7 0 17 1 24 3v-46c-7 -2 -21 -5 -36 -5c-64 0 -96 38 -96 85c0 38 20 77 63 106h-7l-6 92c-24 -62 -88 -102 -168 -102c-110 0 -173 76 -173 189v334h81v-308c0 -46 4 -143 117 -143c99 0 142 75 142 177v274h82v-513h-1c-48 -21 -72 -57 -72 -94
c0 -38 26 -49 50 -49z" />
    <glyph glyph-name="uring" unicode="&#x16f;" horiz-adv-x="592" 
d="M297 492c-61 0 -110 45 -110 108c0 62 42 109 110 109s111 -47 111 -109c0 -63 -50 -108 -111 -108zM297 663c-37 0 -62 -28 -62 -63c0 -34 25 -63 62 -63s62 29 62 63c0 35 -25 63 -62 63zM425 513h82v-513h-75l-6 92c-24 -62 -88 -102 -168 -102
c-110 0 -173 76 -173 189v334h81v-308c0 -46 4 -143 117 -143c99 0 142 75 142 177v274z" />
    <glyph glyph-name="v" unicode="v" horiz-adv-x="504" 
d="M400 513h93l-192 -513h-95l-194 513h92c57 -157 129 -360 150 -426c22 69 94 279 146 426z" />
    <glyph glyph-name="w" unicode="w" horiz-adv-x="809" 
d="M683 513h87l-151 -513h-103c-49 167 -86 304 -111 405c-21 -101 -58 -239 -104 -405h-108l-154 513h91c67 -248 95 -350 119 -433c12 53 46 172 113 433h87c76 -284 105 -381 118 -430c14 57 43 161 116 430z" />
    <glyph glyph-name="wacute" unicode="&#x1e83;" horiz-adv-x="809" 
d="M593 681l-189 -109l-26 41l176 132zM683 513h87l-151 -513h-103c-49 167 -86 304 -111 405c-21 -101 -58 -239 -104 -405h-108l-154 513h91c67 -248 95 -350 119 -433c12 53 46 172 113 433h87c76 -284 105 -381 118 -430c14 57 43 161 116 430z" />
    <glyph glyph-name="wcircumflex" unicode="&#x175;" horiz-adv-x="809" 
d="M406 682l-106 -110l-41 38l119 124h57l118 -123l-42 -39zM683 513h87l-151 -513h-103c-49 167 -86 304 -111 405c-21 -101 -58 -239 -104 -405h-108l-154 513h91c67 -248 95 -350 119 -433c12 53 46 172 113 433h87c76 -284 105 -381 118 -430c14 57 43 161 116 430z" />
    <glyph glyph-name="wdieresis" unicode="&#x1e85;" horiz-adv-x="809" 
d="M357 690v-85h-101v85h101zM553 690v-85h-101v85h101zM683 513h87l-151 -513h-103c-49 167 -86 304 -111 405c-21 -101 -58 -239 -104 -405h-108l-154 513h91c67 -248 95 -350 119 -433c12 53 46 172 113 433h87c76 -284 105 -381 118 -430c14 57 43 161 116 430z" />
    <glyph glyph-name="wgrave" unicode="&#x1e81;" horiz-adv-x="809" 
d="M433 613l-27 -41l-189 109l39 64zM683 513h87l-151 -513h-103c-49 167 -86 304 -111 405c-21 -101 -58 -239 -104 -405h-108l-154 513h91c67 -248 95 -350 119 -433c12 53 46 172 113 433h87c76 -284 105 -381 118 -430c14 57 43 161 116 430z" />
    <glyph glyph-name="x" unicode="x" horiz-adv-x="482" 
d="M19 0l167 261l-165 252h91l130 -198l126 198h90l-166 -252l171 -261h-94l-131 205l-131 -205h-88z" />
    <glyph glyph-name="y" unicode="y" horiz-adv-x="507" 
d="M411 513h82l-229 -592c-23 -60 -54 -125 -155 -125c-29 0 -53 5 -71 14v66c62 -20 121 -16 147 49l28 74l-200 514h83l157 -422s69 190 103 279z" />
    <glyph glyph-name="yacute" unicode="&#xfd;" horiz-adv-x="507" 
d="M441 681l-189 -109l-26 41l176 132zM411 513h82l-229 -592c-23 -60 -54 -125 -155 -125c-29 0 -53 5 -71 14v66c62 -20 121 -16 147 49l28 74l-200 514h83l157 -422s69 190 103 279z" />
    <glyph glyph-name="ycircumflex" unicode="&#x177;" horiz-adv-x="507" 
d="M254 682l-106 -110l-41 38l119 124h57l118 -123l-42 -39zM411 513h82l-229 -592c-23 -60 -54 -125 -155 -125c-29 0 -53 5 -71 14v66c62 -20 121 -16 147 49l28 74l-200 514h83l157 -422s69 190 103 279z" />
    <glyph glyph-name="ydieresis" unicode="&#xff;" horiz-adv-x="507" 
d="M205 690v-85h-101v85h101zM401 690v-85h-101v85h101zM411 513h82l-229 -592c-23 -60 -54 -125 -155 -125c-29 0 -53 5 -71 14v66c62 -20 121 -16 147 49l28 74l-200 514h83l157 -422s69 190 103 279z" />
    <glyph glyph-name="ygrave" unicode="&#x1ef3;" horiz-adv-x="507" 
d="M281 613l-27 -41l-189 109l39 64zM411 513h82l-229 -592c-23 -60 -54 -125 -155 -125c-29 0 -53 5 -71 14v66c62 -20 121 -16 147 49l28 74l-200 514h83l157 -422s69 190 103 279z" />
    <glyph glyph-name="z" unicode="z" horiz-adv-x="505" 
d="M153 70h302v-70h-398v62l297 381h-297v70h394v-65z" />
    <glyph glyph-name="zacute" unicode="&#x17a;" horiz-adv-x="505" 
d="M442 681l-189 -109l-26 41l176 132zM153 70h302v-70h-398v62l297 381h-297v70h394v-65z" />
    <glyph glyph-name="zcaron" unicode="&#x17e;" horiz-adv-x="505" 
d="M282 582h-57l-119 123l43 39l104 -110l105 110l42 -39zM153 70h302v-70h-398v62l297 381h-297v70h394v-65z" />
    <glyph glyph-name="zdotaccent" unicode="&#x17c;" horiz-adv-x="505" 
d="M304 689v-85h-101v85h101zM153 70h302v-70h-398v62l297 381h-297v70h394v-65z" />
    <glyph glyph-name="a.ss02" horiz-adv-x="558" 
d="M282 523c137 0 191 -70 191 -176v-347h-78v102c-20 -68 -87 -112 -175 -112c-98 0 -166 57 -166 152c0 99 71 151 168 161l121 12c23 2 47 12 47 53c0 56 -45 86 -112 86c-77 0 -126 -39 -135 -99h-80c16 109 97 168 219 168zM394 228v27l-148 -12
c-80 -7 -110 -44 -110 -96c0 -57 40 -87 101 -87c94 0 157 72 157 168z" />
    <glyph glyph-name="y.ss02" horiz-adv-x="513" 
d="M13 513h90l155 -418s63 186 98 275l56 143h88l-279 -713h-87l80 205z" />
    <glyph glyph-name="E_l" horiz-adv-x="888" 
d="M797 725v-725h-82v647h-529v-247h286v-74h-286v-247h386v-79h-469v725h694z" />
    <glyph glyph-name="F_i" horiz-adv-x="858" 
d="M103 0v725h670v-78h-587v-283h345v-76h-345v-288h-83zM692 0v513h81v-513h-81z" />
    <glyph glyph-name="L_i" horiz-adv-x="688" 
d="M498 644v84h105v-84h-105zM101 0v725h83v-646h408v-79h-491zM511 157v356h81v-356h-81z" />
    <glyph glyph-name="f_f_i" horiz-adv-x="912" 
d="M620 682c-84 0 -104 -35 -104 -88v-81h312v-513h-82v443h-230v-443h-80v443h-241v-443h-81v443h-85v70h85v76c0 116 64 161 171 161h104v-68h-90c-85 0 -104 -35 -104 -88v-81h241v76c0 116 65 161 170 161h222v-68h-208z" />
    <glyph glyph-name="f_i" horiz-adv-x="590" 
d="M299 682c-85 0 -104 -35 -104 -88v-81h311v-513h-81v443h-230v-443h-81v443h-85v70h85v76c0 116 64 161 170 161h222v-68h-207z" />
    <glyph glyph-name="f_j" horiz-adv-x="590" 
d="M299 682c-85 0 -104 -35 -104 -88v-81h311v-548c0 -122 -62 -168 -160 -168c-26 0 -47 3 -67 7v72c14 -4 38 -6 55 -6c73 -1 91 43 91 93v480h-230v-443h-81v443h-85v70h85v76c0 116 64 161 170 161h222v-68h-207z" />
    <glyph glyph-name="f_l" horiz-adv-x="597" 
d="M506 750v-750h-81v682h-126c-85 0 -104 -35 -104 -88v-81h178v-70h-178v-443h-81v443h-85v70h85v76c0 116 64 161 170 161h222z" />
    <glyph glyph-name="f_y" horiz-adv-x="835" 
d="M734 513h87l-230 -592c-24 -60 -55 -125 -156 -125c-29 0 -53 5 -71 14v70c69 -26 117 -12 140 45l32 80l-173 438h-168v-443h-81v443h-85v70h85v77c0 66 16 167 141 167c24 0 48 -3 66 -7v-66c-17 2 -32 3 -46 3c-80 0 -80 -57 -80 -108v-66h230l154 -418s64 186 99 275
z" />
    <glyph glyph-name="f_z" horiz-adv-x="733" 
d="M380 70h302v-70h-397v62l297 381h-387v-443h-81v443h-85v70h85v77c0 66 16 167 141 167c24 0 48 -3 66 -7v-66c-17 2 -32 3 -46 3c-80 0 -80 -57 -80 -108v-66h484v-65z" />
    <glyph glyph-name="t_t" horiz-adv-x="682" 
d="M650 443h-125v-286c0 -75 27 -96 81 -96c14 0 32 2 44 4v-65c-19 -5 -42 -9 -64 -9c-111 0 -142 71 -142 156v296h-234v-286c0 -75 28 -96 82 -96c13 0 32 2 44 4v-65c-20 -5 -43 -9 -65 -9c-110 0 -141 71 -141 156v296h-108v70h46c50 0 62 20 62 62v86h80v-148h172
c50 0 62 20 62 62v86h81v-148h125v-70z" />
    <glyph glyph-name="t_u" horiz-adv-x="960" 
d="M793 513h82v-513h-75l-6 92c-24 -62 -88 -102 -168 -102c-110 0 -173 76 -173 189v264h-243v-286c0 -75 28 -96 82 -96c13 0 32 2 44 4v-65c-20 -5 -43 -9 -65 -9c-110 0 -141 71 -141 156v296h-108v70h46c50 0 62 20 62 62v86h80v-148h324v-308c0 -46 4 -143 117 -143
c99 0 142 75 142 177v274z" />
    <glyph glyph-name="t_y" horiz-adv-x="881" 
d="M780 513h88l-231 -592c-24 -60 -55 -125 -156 -125c-28 0 -53 5 -70 14v70c68 -26 116 -12 139 45l32 80l-173 438h-199v-286c0 -75 28 -96 82 -96c13 0 32 2 44 4v-65c-20 -5 -43 -9 -65 -9c-110 0 -141 71 -141 156v296h-108v70h46c50 0 62 20 62 62v86h80v-148h261
l155 -418s63 186 98 275z" />
    <glyph glyph-name="t_z" horiz-adv-x="823" 
d="M471 70h301v-70h-397v62l297 381h-462v-286c0 -75 28 -96 82 -96c13 0 32 2 44 4v-65c-20 -5 -43 -9 -65 -9c-110 0 -141 71 -141 156v296h-108v70h46c50 0 62 20 62 62v86h80v-148h559v-65z" />
    <glyph glyph-name="w_w_w" horiz-adv-x="2096" 
d="M1970 513h86l-151 -513h-100l-42 134c-8 26 -29 112 -70 255c-15 -58 -42 -166 -69 -257l-39 -132h-106l-109 366l-108 -366h-100l-43 134c-7 26 -28 112 -69 255c-15 -58 -43 -166 -69 -257l-39 -132h-106l-109 366l-108 -366h-100l-43 134c-1 4 -29 112 -70 255
c-15 -58 -42 -166 -69 -257l-39 -132h-105l-154 513h91l61 -226c7 -25 45 -161 57 -206c7 30 12 44 55 206l59 226h87l61 -226c23 -86 46 -164 57 -206c9 38 34 117 56 206l60 226h90l61 -226c7 -25 45 -161 58 -206c6 30 12 44 54 206l59 226h88l61 -226
c23 -86 46 -164 56 -206c9 38 33 117 57 206l59 226h91l60 -226c8 -25 46 -161 58 -206c6 30 12 44 55 206l58 226h88l61 -226c23 -86 46 -164 57 -206c8 38 33 117 56 206z" />
    <glyph glyph-name="omega" unicode="&#x3c9;" horiz-adv-x="1006" 
d="M28 0l15 87c43 -1 81 9 93 66l79 449c7 57 -29 61 -71 60l16 87l267 1l-15 -87c-11 1 -68 8 -80 -60l-75 -407c-10 -55 -19 -92 -49 -119l14 -18c43 35 97 35 152 35h338c49 0 87 0 97 59l17 101h100l-35 -254h-863zM780 612c0 22 14 35 35 35c20 0 34 -13 34 -35
c0 -19 -14 -34 -34 -34c-21 0 -35 15 -35 34zM318 169l15 84h113l4 19c-63 31 -92 90 -92 155c0 121 95 213 238 213c128 0 214 -73 214 -183c0 -88 -56 -162 -140 -185l-5 -19h106l-12 -84h-199l20 122c81 13 136 73 136 147c0 71 -48 115 -123 115
c-85 0 -143 -58 -143 -138c0 -62 35 -109 86 -124l-21 -122h-197zM788 613c0 -17 11 -28 27 -28s26 12 26 27c0 17 -10 28 -26 28c-17 0 -27 -11 -27 -27zM802 595v35h16c5 0 12 -3 12 -11c0 -6 -3 -9 -7 -11l7 -13h-8l-6 12h-7v-12h-7zM809 612h7c4 0 7 2 7 6s-3 6 -6 6h-8
v-12z" />
    <glyph glyph-name="zero" unicode="0" horiz-adv-x="621" 
d="M311 -6c-145 0 -254 112 -254 371c0 261 111 370 253 370c145 0 254 -111 254 -370c0 -261 -111 -371 -253 -371zM309 67c115 0 170 108 170 297c0 194 -56 298 -170 298s-168 -105 -168 -296c0 -196 55 -299 168 -299z" />
    <glyph glyph-name="one" unicode="1" horiz-adv-x="502" 
d="M111 541v83l168 101h72v-725h-80v633z" />
    <glyph glyph-name="two" unicode="2" horiz-adv-x="597" 
d="M206 79h322v-79h-433v74l253 286c39 45 89 102 89 177c0 78 -55 126 -135 126c-92 0 -147 -64 -146 -152h-81c0 132 90 224 227 224c131 0 219 -81 219 -197c0 -89 -52 -157 -114 -228z" />
    <glyph glyph-name="three" unicode="3" horiz-adv-x="600" 
d="M403 378c77 -32 115 -97 115 -178c0 -127 -96 -210 -238 -210c-148 0 -234 92 -229 229h84c-5 -108 56 -159 146 -159c92 0 153 55 153 138c0 94 -68 141 -164 141h-47v72h47c103 0 151 56 151 130c0 82 -59 123 -138 123c-95 0 -146 -59 -143 -157h-84
c-5 136 86 228 227 228c120 0 223 -66 223 -196c0 -73 -40 -131 -103 -161z" />
    <glyph glyph-name="four" unicode="4" horiz-adv-x="621" 
d="M51 150v71l288 504h86l-288 -503h260v271h80v-271h93v-72h-93v-150h-80v150h-346z" />
    <glyph glyph-name="five" unicode="5" horiz-adv-x="621" 
d="M309 479c141 0 238 -98 238 -243c0 -147 -99 -246 -243 -246c-139 0 -233 92 -232 230h83c-2 -94 61 -157 150 -157c92 0 156 70 156 172c0 103 -66 172 -161 172c-64 0 -113 -30 -132 -76h-79l58 394h366v-74h-299l-31 -217c29 28 77 45 126 45z" />
    <glyph glyph-name="six" unicode="6" horiz-adv-x="621" 
d="M334 472c128 0 227 -100 227 -242s-99 -240 -238 -240c-184 0 -254 149 -254 351c0 230 72 394 263 394c124 0 205 -73 216 -182h-82c-9 70 -61 110 -135 110c-160 0 -176 -180 -180 -261c-1 -14 0 -25 0 -35c32 69 106 105 183 105zM322 63c90 0 153 66 153 169
c0 102 -63 167 -153 167c-105 0 -155 -81 -155 -168s53 -168 155 -168z" />
    <glyph glyph-name="seven" unicode="7" horiz-adv-x="558" 
d="M54 725h461v-67l-298 -658h-89l299 652h-373v73z" />
    <glyph glyph-name="eight" unicode="8" horiz-adv-x="621" 
d="M432 403c73 -29 120 -104 120 -194c0 -130 -95 -220 -244 -220c-148 0 -244 90 -244 220c0 89 47 164 121 193c-54 32 -84 82 -84 149c0 110 81 184 207 184c127 0 208 -74 208 -184c0 -67 -31 -117 -84 -148zM308 663c-74 0 -124 -46 -124 -115c0 -70 51 -120 124 -120
c74 0 125 49 125 120c0 69 -51 115 -125 115zM308 62c97 0 161 60 161 150c0 89 -65 153 -161 153c-95 0 -160 -63 -160 -153c0 -89 64 -150 160 -150z" />
    <glyph glyph-name="nine" unicode="9" horiz-adv-x="621" 
d="M298 735c181 0 252 -160 252 -378c0 -214 -68 -367 -250 -367c-127 0 -211 73 -222 183h81c8 -71 62 -110 140 -110c127 0 168 103 168 258v37c-33 -69 -107 -104 -183 -104c-128 0 -225 98 -225 241c0 144 97 240 239 240zM299 326c102 0 154 81 154 167
c0 89 -53 169 -154 169c-92 0 -155 -66 -155 -169c0 -101 62 -167 155 -167z" />
    <glyph glyph-name="uni2780" unicode="&#x2780;" horiz-adv-x="869" 
d="M435 -11c-212 0 -374 162 -374 373s162 373 374 373c211 0 373 -162 373 -373s-162 -373 -373 -373zM435 47c178 0 315 136 315 315c0 178 -137 315 -315 315c-179 0 -316 -137 -316 -315s137 -315 316 -315zM314 454v66l105 60h61v-435h-66v363z" />
    <glyph glyph-name="uni2781" unicode="&#x2781;" horiz-adv-x="867" 
d="M434 735c211 0 373 -162 373 -373s-162 -373 -373 -373c-212 0 -374 162 -374 373s162 373 374 373zM434 47c178 0 315 137 315 315s-137 315 -315 315c-180 0 -316 -137 -316 -315s136 -315 316 -315zM509 332l-112 -125h179v-61h-272v56l154 169c24 27 46 55 46 92
c0 41 -29 66 -70 66c-49 0 -76 -33 -76 -80h-67c-1 82 57 138 143 138c83 0 138 -50 138 -123c0 -51 -27 -92 -63 -132z" />
    <glyph glyph-name="uni2782" unicode="&#x2782;" horiz-adv-x="867" 
d="M434 735c211 0 373 -162 373 -373s-162 -373 -373 -373c-212 0 -374 162 -374 373s162 373 374 373zM434 47c178 0 315 137 315 315s-137 315 -315 315c-180 0 -316 -137 -316 -315s136 -315 316 -315zM510 372c45 -18 69 -56 69 -106c0 -77 -60 -127 -148 -127
c-90 0 -144 55 -143 137h68c-1 -53 31 -80 76 -80c46 0 79 29 79 71c0 47 -35 72 -84 72h-33v59h28c54 0 79 30 79 67c0 40 -29 64 -71 64c-48 0 -73 -31 -72 -80h-68c-3 82 53 137 142 137c78 0 139 -43 139 -118c0 -42 -23 -77 -61 -96z" />
    <glyph glyph-name="uni2783" unicode="&#x2783;" horiz-adv-x="867" 
d="M434 -11c-212 0 -374 162 -374 373s162 373 374 373c211 0 373 -162 373 -373s-162 -373 -373 -373zM434 47c178 0 315 137 315 315s-137 315 -315 315c-180 0 -316 -137 -316 -315s136 -315 316 -315zM273 229v57l163 294h70l-160 -292h130v146h67v-146h51v-59h-51v-84
h-67v84h-203z" />
    <glyph glyph-name="uni2784" unicode="&#x2784;" horiz-adv-x="871" 
d="M436 735c211 0 373 -162 373 -373s-162 -373 -373 -373c-212 0 -374 162 -374 373s162 373 374 373zM436 47c178 0 315 137 315 315s-137 315 -315 315c-179 0 -316 -137 -316 -315s137 -315 316 -315zM443 435c87 0 145 -60 145 -146c0 -90 -61 -150 -151 -150
c-88 0 -148 56 -148 140h68c-1 -49 33 -82 80 -82c48 0 82 37 82 90c0 55 -36 90 -84 90c-35 0 -61 -16 -70 -42h-67l35 245h232v-59h-177l-17 -109c18 14 43 23 72 23z" />
    <glyph glyph-name="uni2785" unicode="&#x2785;" horiz-adv-x="867" 
d="M434 735c211 0 373 -162 373 -373s-162 -373 -373 -373c-212 0 -374 162 -374 373s162 373 374 373zM434 47c178 0 315 137 315 315s-137 315 -315 315c-180 0 -316 -137 -316 -315s136 -315 316 -315zM446 432c80 0 141 -59 141 -145c0 -88 -62 -148 -151 -148
c-109 0 -159 84 -159 214c0 140 50 233 164 233c78 0 130 -45 138 -113h-68c-6 35 -33 55 -72 55c-78 0 -92 -78 -94 -128v-19c19 33 57 51 101 51zM436 198c48 0 82 36 82 89s-34 88 -82 88c-53 0 -82 -41 -82 -89s30 -88 82 -88z" />
    <glyph glyph-name="uni2786" unicode="&#x2786;" horiz-adv-x="867" 
d="M434 735c211 0 373 -162 373 -373s-162 -373 -373 -373c-212 0 -374 162 -374 373s162 373 374 373zM434 47c178 0 315 137 315 315s-137 315 -315 315c-180 0 -316 -137 -316 -315s136 -315 316 -315zM299 521v59h285v-53l-173 -382h-72l173 376h-213z" />
    <glyph glyph-name="uni2787" unicode="&#x2787;" horiz-adv-x="867" 
d="M434 735c211 0 373 -162 373 -373s-162 -373 -373 -373c-212 0 -374 162 -374 373s162 373 374 373zM434 47c178 0 315 137 315 315s-137 315 -315 315c-180 0 -316 -137 -316 -315s136 -315 316 -315zM516 387c46 -17 73 -62 73 -114c0 -81 -63 -134 -155 -134
s-155 53 -155 134c0 51 27 97 72 114c-31 18 -49 49 -49 88c0 64 50 111 132 111s131 -47 131 -111c0 -39 -18 -70 -49 -88zM434 530c-39 0 -65 -25 -65 -60s27 -61 65 -61c37 0 65 25 65 61c0 35 -27 60 -65 60zM434 197c51 0 86 31 86 78s-35 80 -86 80s-87 -33 -87 -80
s36 -78 87 -78z" />
    <glyph glyph-name="uni2788" unicode="&#x2788;" horiz-adv-x="867" 
d="M434 735c211 0 373 -162 373 -373s-162 -373 -373 -373c-212 0 -374 162 -374 373s162 373 374 373zM434 47c178 0 315 137 315 315s-137 315 -315 315c-180 0 -316 -137 -316 -315s136 -315 316 -315zM436 586c103 0 159 -84 159 -225c0 -136 -51 -222 -158 -222
c-79 0 -133 46 -139 114h66c5 -36 33 -56 72 -56c65 0 90 51 90 129v19c-21 -33 -60 -51 -103 -51c-79 0 -137 59 -137 144c0 89 62 148 150 148zM436 350c53 0 81 42 81 89c0 48 -29 89 -81 89c-48 0 -81 -36 -81 -90c0 -52 32 -88 81 -88z" />
    <glyph glyph-name="uni2776" unicode="&#x2776;" horiz-adv-x="867" 
d="M434 -11c-212 0 -374 162 -374 373s162 373 374 373c211 0 373 -162 373 -373s-162 -373 -373 -373zM313 454l100 54v-363h66v435h-61l-105 -60v-66z" />
    <glyph glyph-name="uni2777" unicode="&#x2777;" horiz-adv-x="867" 
d="M434 -11c-212 0 -374 162 -374 373s162 373 374 373c211 0 373 -162 373 -373s-162 -373 -373 -373zM304 146h272v61h-179l112 125c36 40 63 81 63 132c0 73 -55 123 -138 123c-86 0 -144 -56 -143 -138h67c0 47 27 80 76 80c41 0 70 -25 70 -66c0 -37 -22 -65 -46 -92
l-154 -169v-56z" />
    <glyph glyph-name="uni2778" unicode="&#x2778;" horiz-adv-x="867" 
d="M434 -11c-212 0 -374 162 -374 373s162 373 374 373c211 0 373 -162 373 -373s-162 -373 -373 -373zM431 139c88 0 148 50 148 127c0 50 -24 88 -69 106c38 19 61 54 61 96c0 75 -61 118 -139 118c-89 0 -145 -55 -142 -137h68c-1 49 24 80 72 80c42 0 71 -24 71 -64
c0 -37 -25 -67 -79 -67h-28v-59h33c49 0 84 -25 84 -72c0 -42 -33 -71 -79 -71c-45 0 -77 27 -76 80h-68c-1 -82 53 -137 143 -137z" />
    <glyph glyph-name="uni2779" unicode="&#x2779;" horiz-adv-x="867" 
d="M434 -11c-212 0 -374 162 -374 373s162 373 374 373c211 0 373 -162 373 -373s-162 -373 -373 -373zM476 145h67v84h51v59h-51v146h-67v-146h-130l160 292h-70l-163 -294v-57h203v-84z" />
    <glyph glyph-name="uni277A" unicode="&#x277a;" horiz-adv-x="867" 
d="M434 -11c-212 0 -374 162 -374 373s162 373 374 373c211 0 373 -162 373 -373s-162 -373 -373 -373zM287 279c0 -84 60 -140 148 -140c90 0 151 60 151 150c0 86 -59 146 -145 146c-29 0 -54 -9 -72 -23l16 109h178v59h-233l-35 -245h68c9 26 35 42 70 42
c48 0 84 -35 84 -90c0 -53 -34 -90 -82 -90c-47 0 -81 33 -80 82h-68z" />
    <glyph glyph-name="uni277B" unicode="&#x277b;" horiz-adv-x="867" 
d="M434 -11c-212 0 -374 162 -374 373s162 373 374 373c211 0 373 -162 373 -373s-162 -373 -373 -373zM277 353c0 -130 50 -214 159 -214c89 0 151 60 151 148c0 86 -61 145 -141 145c-43 0 -82 -18 -101 -51v19c2 50 16 128 94 128c39 0 66 -20 72 -55h68
c-8 68 -60 113 -138 113c-114 0 -164 -93 -164 -233zM436 198c-52 0 -82 40 -82 88s29 89 82 89c48 0 82 -35 82 -88s-34 -89 -82 -89z" />
    <glyph glyph-name="uni277C" unicode="&#x277c;" horiz-adv-x="867" 
d="M434 -11c-212 0 -374 162 -374 373s162 373 374 373c211 0 373 -162 373 -373s-162 -373 -373 -373zM339 145h72l173 382v53h-285v-59h214z" />
    <glyph glyph-name="uni277D" unicode="&#x277d;" horiz-adv-x="867" 
d="M434 -11c-212 0 -374 162 -374 373s162 373 374 373c211 0 373 -162 373 -373s-162 -373 -373 -373zM434 139c92 0 155 53 155 134c0 52 -27 97 -73 114c31 18 49 49 49 88c0 64 -49 111 -131 111s-132 -47 -132 -111c0 -39 18 -70 49 -88c-45 -17 -72 -63 -72 -114
c0 -81 63 -134 155 -134zM434 409c-38 0 -65 26 -65 61s26 60 65 60c38 0 65 -25 65 -60c0 -36 -28 -61 -65 -61zM434 197c-51 0 -87 31 -87 78s36 80 87 80s86 -33 86 -80s-35 -78 -86 -78z" />
    <glyph glyph-name="uni277E" unicode="&#x277e;" horiz-adv-x="867" 
d="M434 -11c-212 0 -374 162 -374 373s162 373 374 373c211 0 373 -162 373 -373s-162 -373 -373 -373zM437 139c107 0 158 86 158 222c0 141 -56 225 -159 225c-88 0 -150 -59 -150 -148c0 -85 58 -144 137 -144c43 0 82 18 103 51v-19c0 -78 -25 -129 -90 -129
c-39 0 -67 20 -72 56h-66c6 -68 60 -114 139 -114zM436 350c-49 0 -81 36 -81 88c0 54 33 90 81 90c52 0 81 -41 81 -89c0 -47 -28 -89 -81 -89z" />
    <glyph glyph-name="zero.osf" horiz-adv-x="513" 
d="M257 -10c-119 0 -215 92 -215 266c0 173 95 266 214 266s215 -91 215 -265c0 -173 -95 -267 -214 -267zM256 63c85 0 133 86 133 192c0 107 -48 195 -133 195c-84 1 -133 -85 -133 -194c0 -106 47 -193 133 -193z" />
    <glyph glyph-name="one.osf" horiz-adv-x="357" 
d="M55 346v83l141 84h72v-513h-80v421z" />
    <glyph glyph-name="two.osf" horiz-adv-x="502" 
d="M193 71h237v-71h-352v66l193 177c45 41 71 71 71 118c0 57 -38 92 -94 92c-65 0 -103 -48 -103 -110h-83c1 105 77 180 188 180c105 0 176 -64 176 -160c0 -78 -50 -128 -96 -169z" />
    <glyph glyph-name="three.osf" horiz-adv-x="574" 
d="M411 171c68 -30 108 -90 108 -174c0 -125 -96 -206 -238 -206c-148 0 -235 90 -230 224h84c-4 -106 56 -155 147 -155c92 0 153 53 153 136c0 92 -69 137 -165 137h-46v72h46c104 0 152 54 152 127c0 81 -59 121 -138 121c-95 0 -146 -59 -144 -154h-84
c-5 134 86 224 227 224c121 0 223 -66 223 -193c0 -67 -30 -126 -95 -159z" />
    <glyph glyph-name="four.osf" horiz-adv-x="609" 
d="M46 -63v71l289 504h86l-289 -503h261v271h80v-271h93v-72h-93v-150h-80v150h-347z" />
    <glyph glyph-name="five.osf" horiz-adv-x="580" 
d="M291 279c141 0 238 -98 238 -242c0 -147 -99 -246 -243 -246c-139 0 -232 92 -233 230h84c-2 -94 60 -158 150 -158c92 0 156 71 156 172c0 104 -66 172 -161 172c-64 0 -113 -30 -132 -75h-79l57 381h367v-75h-300l-31 -205c29 29 77 46 127 46z" />
    <glyph glyph-name="six.osf" horiz-adv-x="615" 
d="M329 472c128 0 226 -100 226 -242s-99 -240 -237 -240c-184 0 -254 149 -254 351c0 230 72 394 263 394c124 0 205 -73 215 -182h-81c-9 70 -61 110 -135 110c-161 0 -176 -180 -180 -261c-1 -13 0 -24 0 -33c33 67 107 103 183 103zM316 63c91 0 154 66 154 169
c0 102 -63 167 -154 167c-104 0 -155 -81 -155 -168s54 -168 155 -168z" />
    <glyph glyph-name="seven.osf" horiz-adv-x="566" 
d="M55 513h470v-68l-320 -644h-89l320 638h-381v74z" />
    <glyph glyph-name="eight.osf" horiz-adv-x="578" 
d="M414 403c73 -30 120 -104 120 -194c0 -130 -95 -220 -244 -220s-244 90 -244 220c0 90 47 164 120 194c-53 31 -83 81 -83 148c0 110 81 184 207 184s207 -74 207 -184c0 -67 -30 -117 -83 -148zM289 663c-74 0 -123 -46 -123 -115c0 -70 50 -120 124 -120
s124 49 124 120c0 69 -51 115 -125 115zM290 62c96 0 160 60 160 150c0 89 -64 153 -160 153s-160 -63 -160 -153c0 -89 64 -150 160 -150z" />
    <glyph glyph-name="nine.osf" horiz-adv-x="614" 
d="M300 523c181 0 252 -160 252 -379c0 -201 -68 -353 -250 -353c-126 0 -211 73 -222 183h81c8 -72 62 -111 140 -111c127 0 168 103 168 246v37c-33 -69 -107 -104 -183 -104c-127 0 -225 98 -225 241s97 240 239 240zM301 113c102 0 154 82 154 168
c0 89 -53 169 -154 169c-91 0 -154 -67 -154 -169s62 -168 154 -168z" />
    <glyph glyph-name="zero.ss01" horiz-adv-x="619" 
d="M310 -6c-145 0 -254 112 -254 371c0 261 111 370 253 370c145 0 254 -111 254 -370c0 -261 -111 -371 -253 -371zM308 67c115 0 170 108 170 297c0 194 -56 298 -170 298s-168 -105 -168 -296c0 -196 55 -299 168 -299zM264 325v80h91v-80h-91z" />
    <glyph glyph-name="zero.ss02" horiz-adv-x="621" 
d="M310 735c145 0 254 -111 254 -370c0 -261 -111 -371 -253 -371c-145 0 -254 112 -254 371c0 261 111 370 253 370zM309 662c-108 0 -162 -94 -168 -266h337c-6 173 -61 266 -169 266zM309 67c109 0 164 97 170 267h-337c5 -175 60 -267 167 -267z" />
    <glyph glyph-name="zero.tf" 
d="M303 735c158 0 247 -131 247 -372c0 -245 -92 -373 -247 -373c-163 0 -246 132 -246 373c0 245 86 372 246 372zM303 662c-112 0 -163 -105 -163 -298c0 -18 0 -36 1 -53l315 181c-20 114 -70 170 -153 170zM303 63c113 0 163 106 163 299c0 17 0 34 -1 50l-315 -180
c20 -113 71 -169 153 -169z" />
    <glyph glyph-name="one.tf" 
d="M348 74h186v-74h-463v74h197v559l-161 -92v83l169 101h72v-651z" />
    <glyph glyph-name="two.tf" 
d="M206 79h322v-79h-433v74l253 286c62 71 89 115 89 171c0 84 -54 132 -136 132c-91 0 -146 -64 -145 -152h-81c0 132 90 224 226 224c132 0 220 -80 220 -199c0 -72 -31 -130 -114 -226z" />
    <glyph glyph-name="three.tf" 
d="M429 381c69 -30 108 -98 108 -181c0 -126 -96 -210 -238 -210c-148 0 -235 92 -230 229h84c-4 -108 56 -159 147 -159c92 0 153 56 153 138c0 103 -66 144 -165 144h-46v72h46c104 0 152 51 152 127c0 82 -59 123 -138 123c-89 0 -146 -63 -144 -157h-84
c-2 136 88 228 227 228c121 0 223 -66 223 -196c0 -70 -36 -127 -95 -158z" />
    <glyph glyph-name="four.tf" 
d="M44 150v71l288 504h86l-288 -503h260v271h80v-271h93v-72h-93v-150h-80v150h-346z" />
    <glyph glyph-name="five.tf" 
d="M304 479c141 0 237 -98 237 -243c0 -147 -98 -246 -242 -246c-140 0 -234 92 -233 230h84c-3 -94 60 -157 150 -157c92 0 156 70 156 172c0 103 -66 172 -161 172c-64 0 -114 -30 -132 -76h-79l57 394h367v-74h-300l-31 -217c28 28 77 45 127 45z" />
    <glyph glyph-name="six.tf" 
d="M322 472c128 0 227 -100 227 -242s-99 -240 -238 -240c-184 0 -254 149 -254 351c0 230 72 394 263 394c124 0 205 -73 216 -182h-82c-9 70 -61 110 -135 110c-160 0 -177 -180 -180 -261c-1 -14 0 -25 0 -35c32 69 106 105 183 105zM310 63c90 0 153 66 153 169
c0 102 -63 167 -153 167c-105 0 -155 -81 -155 -168s53 -168 155 -168z" />
    <glyph glyph-name="seven.tf" 
d="M68 725h470v-67l-326 -658h-90l326 652h-380v73z" />
    <glyph glyph-name="eight.tf" 
d="M427 402c72 -29 120 -103 120 -194c0 -129 -95 -219 -244 -219s-243 90 -243 220c0 90 47 164 120 193c-53 32 -84 82 -84 149c0 111 82 184 207 184c126 0 208 -73 208 -184c0 -66 -30 -117 -84 -149zM303 663c-75 0 -124 -45 -124 -115s50 -120 124 -120
c75 0 125 49 125 120c0 70 -51 115 -125 115zM303 62c97 0 160 60 160 150c0 89 -64 153 -160 153c-95 0 -159 -63 -159 -153c0 -89 63 -150 159 -150z" />
    <glyph glyph-name="nine.tf" 
d="M302 735c181 0 252 -160 252 -378c0 -214 -68 -367 -250 -367c-126 0 -211 73 -221 183h80c8 -71 62 -110 140 -110c127 0 168 103 168 258v37c-33 -69 -107 -104 -183 -104c-127 0 -225 98 -225 241c0 144 98 240 239 240zM303 326c103 0 154 81 154 167
c0 89 -53 169 -154 169c-91 0 -154 -66 -154 -169c0 -101 62 -167 154 -167z" />
    <glyph glyph-name="uni2080" unicode="&#x2080;" horiz-adv-x="427" 
d="M213 -104c-106 0 -186 83 -186 260c0 178 82 259 187 259s186 -82 186 -260c0 -179 -82 -259 -187 -259zM214 -42c74 0 112 72 112 198c0 128 -40 196 -112 196c-76 0 -114 -72 -114 -196c0 -131 41 -198 114 -198z" />
    <glyph glyph-name="uni2081" unicode="&#x2081;" horiz-adv-x="289" 
d="M36 267v70l118 71h64v-508h-70v431z" />
    <glyph glyph-name="uni2082" unicode="&#x2082;" horiz-adv-x="408" 
d="M152 -34h215v-66h-314v61l180 198c39 44 56 73 56 110c0 53 -34 84 -88 84c-57 0 -92 -41 -91 -98h-71c-1 94 65 160 162 160s161 -58 161 -143c0 -51 -23 -94 -76 -155z" />
    <glyph glyph-name="uni2083" unicode="&#x2083;" horiz-adv-x="402" 
d="M291 165c49 -21 77 -64 77 -124c0 -90 -71 -148 -171 -148c-107 0 -167 67 -165 160h74c-3 -63 32 -99 91 -99c58 0 98 34 98 88c0 59 -44 89 -104 89h-36v61h33c66 0 97 37 97 83c0 51 -38 78 -87 78c-57 0 -93 -35 -91 -98h-72c-3 95 62 160 163 160
c89 0 160 -50 160 -138c0 -46 -21 -89 -67 -112z" />
    <glyph glyph-name="uni2084" unicode="&#x2084;" horiz-adv-x="429" 
d="M29 1v60l196 347h74l-194 -345h164v178h71v-178h63v-62h-63v-101h-71v101h-240z" />
    <glyph glyph-name="uni2085" unicode="&#x2085;" horiz-adv-x="408" 
d="M208 237c101 0 169 -70 169 -171c0 -103 -71 -173 -175 -173c-99 0 -169 65 -169 162h74c-2 -59 38 -100 96 -100c59 0 100 45 100 110c0 66 -43 111 -103 111c-44 0 -75 -23 -86 -51h-70l41 283h266v-63h-208l-20 -136c21 17 51 28 85 28z" />
    <glyph glyph-name="uni2086" unicode="&#x2086;" horiz-adv-x="431" 
d="M236 234c93 0 163 -70 163 -169c0 -103 -72 -172 -172 -172c-129 0 -185 100 -185 247c0 164 57 275 191 275c89 0 149 -53 157 -131h-70c-6 46 -45 69 -90 69c-100 0 -113 -107 -116 -162v-20c24 42 73 63 122 63zM226 -44c58 0 100 42 100 108s-42 108 -100 108
c-66 0 -100 -51 -100 -108c0 -58 35 -108 100 -108z" />
    <glyph glyph-name="uni2087" unicode="&#x2087;" horiz-adv-x="393" 
d="M34 408h333v-57l-222 -451h-77l222 445h-256v63z" />
    <glyph glyph-name="uni2088" unicode="&#x2088;" horiz-adv-x="408" 
d="M298 182c52 -20 83 -73 83 -135c0 -92 -70 -155 -176 -155s-178 63 -178 155c0 62 33 114 84 135c-36 21 -57 58 -57 103c0 77 59 130 151 130s150 -54 150 -130c0 -46 -21 -82 -57 -103zM205 354c-48 0 -80 -31 -80 -73c0 -44 33 -76 80 -76c46 0 79 32 79 76
c0 43 -33 73 -79 73zM205 -45c61 0 105 38 105 96c0 56 -44 97 -105 97c-62 0 -105 -40 -105 -97s42 -96 105 -96z" />
    <glyph glyph-name="uni2089" unicode="&#x2089;" horiz-adv-x="431" 
d="M216 415c127 0 183 -108 183 -264c0 -153 -53 -258 -183 -258c-89 0 -153 52 -162 131h70c6 -45 43 -69 93 -69c81 0 110 66 110 162v22c-24 -42 -72 -64 -124 -64c-92 0 -161 69 -161 168c0 104 72 172 174 172zM216 136c65 0 99 51 99 108s-34 109 -98 109
c-60 0 -101 -44 -101 -109s40 -108 100 -108z" />
    <glyph glyph-name="zero.dnom" horiz-adv-x="405" 
d="M203 -4c-103 0 -170 81 -170 241c0 167 72 241 170 241c102 0 170 -80 170 -241c0 -168 -74 -241 -170 -241zM202 55c70 0 100 68 100 181c0 125 -34 183 -99 183c-70 0 -101 -66 -101 -180c0 -126 35 -184 100 -184z" />
    <glyph glyph-name="one.dnom" horiz-adv-x="338" 
d="M71 338v68l109 65h62v-471h-67v398z" />
    <glyph glyph-name="two.dnom" horiz-adv-x="385" 
d="M149 62h197v-62h-291v57l167 185c36 40 52 67 52 100c0 49 -32 78 -81 78c-53 0 -85 -38 -85 -91h-67c0 88 61 149 152 149c90 0 149 -55 149 -133c0 -48 -20 -86 -70 -143z" />
    <glyph glyph-name="three.dnom" horiz-adv-x="405" 
d="M282 246c46 -19 75 -59 75 -115c0 -83 -65 -138 -159 -138c-97 0 -156 60 -154 149h69c-2 -59 33 -91 86 -91c52 0 89 33 89 81c0 53 -40 81 -96 81h-34v60h30c60 0 90 32 90 75c0 46 -34 73 -80 73c-57 0 -84 -38 -83 -91h-68c-4 89 57 148 151 148
c84 0 150 -46 150 -128c0 -44 -23 -83 -66 -104z" />
    <glyph glyph-name="four.dnom" horiz-adv-x="405" 
d="M30 93v57l179 321h72l-178 -319h149v163h66v-163h58v-59h-58v-93h-66v93h-222z" />
    <glyph glyph-name="five.dnom" horiz-adv-x="405" 
d="M205 313c94 0 157 -65 157 -158c0 -97 -67 -162 -162 -162c-96 0 -158 64 -158 151h69c-2 -50 33 -92 88 -92s93 42 93 102c0 61 -40 101 -95 101c-38 0 -67 -18 -78 -47h-67l38 263h248v-59h-193l-18 -125c20 16 47 26 78 26z" />
    <glyph glyph-name="six.dnom" horiz-adv-x="405" 
d="M220 310c86 0 150 -66 150 -158c0 -94 -67 -158 -160 -158c-118 0 -171 93 -171 230c0 151 53 254 176 254c84 0 140 -49 147 -121h-67c-6 39 -39 63 -80 63c-91 0 -106 -98 -108 -149v-20c21 38 65 59 113 59zM210 52c53 0 91 40 91 101c0 60 -37 99 -91 99
c-60 0 -93 -48 -93 -100c0 -53 34 -100 93 -100z" />
    <glyph glyph-name="seven.dnom" horiz-adv-x="405" 
d="M45 471h312v-54l-188 -417h-73l189 412h-240v59z" />
    <glyph glyph-name="eight.dnom" horiz-adv-x="405" 
d="M289 262c49 -19 78 -69 78 -124c0 -87 -67 -145 -166 -145c-98 0 -165 58 -165 145c0 56 31 105 78 124c-32 19 -53 52 -53 95c0 71 54 121 140 121c88 0 141 -51 141 -121c0 -41 -19 -75 -53 -95zM201 420c-43 0 -73 -28 -73 -67c0 -40 31 -69 73 -69c44 0 74 29 74 69
s-31 67 -74 67zM201 51c57 0 98 36 98 89c0 52 -41 90 -98 90c-56 0 -96 -38 -96 -90s39 -89 96 -89z" />
    <glyph glyph-name="nine.dnom" horiz-adv-x="405" 
d="M195 478c112 0 169 -95 169 -245c0 -146 -53 -240 -169 -240c-86 0 -141 51 -148 123h65c6 -42 38 -64 83 -64c74 0 101 60 101 148v23c-22 -40 -68 -61 -114 -61c-86 0 -148 64 -148 157c0 94 66 159 161 159zM195 220c59 0 92 47 92 99c0 54 -34 100 -92 100
c-54 0 -92 -40 -92 -101c0 -59 37 -98 92 -98z" />
    <glyph glyph-name="zero.numr" horiz-adv-x="405" 
d="M203 250c-103 0 -170 81 -170 241c0 167 72 241 170 241c102 0 170 -80 170 -241c0 -168 -74 -241 -170 -241zM202 309c70 0 100 68 100 181c0 125 -34 183 -99 183c-70 0 -101 -66 -101 -180c0 -126 35 -184 100 -184z" />
    <glyph glyph-name="one.numr" horiz-adv-x="338" 
d="M71 592v68l109 65h62v-471h-67v398z" />
    <glyph glyph-name="two.numr" horiz-adv-x="385" 
d="M149 316h197v-62h-291v57l167 185c36 40 52 66 52 100c0 49 -32 78 -81 78c-53 0 -85 -38 -85 -91h-67c0 88 61 149 152 149c90 0 149 -55 149 -133c0 -48 -20 -86 -70 -143z" />
    <glyph glyph-name="three.numr" horiz-adv-x="405" 
d="M282 500c46 -19 75 -59 75 -115c0 -83 -65 -138 -159 -138c-97 0 -156 60 -154 149h69c-2 -59 33 -91 86 -91c52 0 89 33 89 81c0 53 -40 81 -96 81h-34v60h30c60 0 90 32 90 75c0 46 -34 73 -80 73c-57 0 -84 -38 -83 -91h-68c-4 89 57 148 151 148
c84 0 150 -46 150 -128c0 -44 -23 -83 -66 -104z" />
    <glyph glyph-name="four.numr" horiz-adv-x="405" 
d="M30 347v57l179 321h72l-178 -319h149v163h66v-163h58v-59h-58v-93h-66v93h-222z" />
    <glyph glyph-name="five.numr" horiz-adv-x="405" 
d="M205 567c94 0 157 -65 157 -158c0 -97 -67 -162 -162 -162c-96 0 -158 64 -158 151h69c-2 -50 33 -92 88 -92s93 42 93 102c0 61 -40 101 -95 101c-38 0 -67 -18 -78 -47h-67l38 263h248v-59h-193l-18 -125c20 16 47 26 78 26z" />
    <glyph glyph-name="six.numr" horiz-adv-x="405" 
d="M220 564c86 0 150 -66 150 -158c0 -94 -67 -158 -160 -158c-118 0 -171 93 -171 230c0 151 53 254 176 254c84 0 140 -49 147 -121h-67c-6 39 -39 63 -80 63c-91 0 -104 -98 -108 -149v-19c21 38 65 58 113 58zM210 306c53 0 91 40 91 101c0 60 -37 99 -91 99
c-60 0 -93 -48 -93 -100c0 -53 34 -100 93 -100z" />
    <glyph glyph-name="seven.numr" horiz-adv-x="405" 
d="M45 725h312v-54l-188 -417h-73l189 412h-240v59z" />
    <glyph glyph-name="eight.numr" horiz-adv-x="405" 
d="M289 516c49 -19 78 -69 78 -124c0 -87 -67 -145 -166 -145c-98 0 -165 58 -165 145c0 56 31 105 78 123c-34 21 -53 55 -53 96c0 71 54 121 140 121c88 0 141 -51 141 -121c0 -41 -19 -75 -53 -95zM201 674c-43 0 -73 -28 -73 -67c0 -40 31 -69 73 -69c44 0 74 29 74 69
s-31 67 -74 67zM201 305c57 0 98 36 98 89c0 52 -41 90 -98 90c-56 0 -96 -38 -96 -90s39 -89 96 -89z" />
    <glyph glyph-name="nine.numr" horiz-adv-x="405" 
d="M195 732c112 0 169 -95 169 -245c0 -146 -53 -240 -169 -240c-82 0 -141 48 -148 123h65c6 -42 38 -64 83 -64c74 0 101 60 101 148v23c-22 -40 -68 -61 -114 -61c-86 0 -148 64 -148 157c0 94 66 159 161 159zM195 474c59 0 92 47 92 99c0 54 -34 100 -92 100
c-54 0 -92 -40 -92 -101c0 -59 37 -98 92 -98z" />
    <glyph glyph-name="uni2070" unicode="&#x2070;" horiz-adv-x="427" 
d="M213 230c-106 0 -186 83 -186 260c0 178 82 259 187 259s186 -82 186 -260s-82 -259 -187 -259zM214 293c74 0 112 71 112 197c0 128 -40 197 -112 197c-76 0 -114 -72 -114 -197c0 -131 41 -197 114 -197z" />
    <glyph glyph-name="uni00B9" unicode="&#xb9;" horiz-adv-x="289" 
d="M36 601v70l118 71h64v-508h-70v431z" />
    <glyph glyph-name="uni00B2" unicode="&#xb2;" horiz-adv-x="408" 
d="M152 300h215v-66h-314v61l180 199c34 38 56 67 56 110c0 52 -34 84 -88 84c-57 0 -92 -42 -91 -99h-71c-1 94 65 160 162 160s161 -57 161 -143c0 -51 -23 -94 -76 -155z" />
    <glyph glyph-name="uni00B3" unicode="&#xb3;" horiz-adv-x="402" 
d="M291 499c49 -21 77 -65 77 -124c0 -89 -71 -148 -171 -148c-107 0 -167 67 -165 160h74c-3 -63 32 -99 91 -99c58 0 98 35 98 88c0 59 -44 90 -104 90h-36v60h33c66 0 97 37 97 83c0 51 -38 79 -87 79c-57 0 -93 -36 -91 -99h-72c-3 95 62 160 163 160
c89 0 160 -49 160 -138c0 -46 -21 -89 -67 -112z" />
    <glyph glyph-name="uni2074" unicode="&#x2074;" horiz-adv-x="429" 
d="M29 335v60l196 347h74l-194 -345h164v178h71v-178h63v-62h-63v-101h-71v101h-240z" />
    <glyph glyph-name="uni2075" unicode="&#x2075;" horiz-adv-x="408" 
d="M208 572c101 0 169 -70 169 -172s-71 -173 -175 -173c-99 0 -169 65 -169 162h74c-2 -59 38 -99 96 -99c59 0 100 45 100 109c0 67 -43 111 -103 111c-45 0 -75 -23 -86 -51h-70l41 283h266v-63h-208l-19 -135c20 17 50 28 84 28z" />
    <glyph glyph-name="uni2076" unicode="&#x2076;" horiz-adv-x="431" 
d="M236 568c93 0 163 -69 163 -169c0 -102 -72 -172 -172 -172c-129 0 -185 101 -185 248c0 163 57 274 191 274c89 0 149 -52 157 -130h-70c-6 45 -45 68 -90 68c-100 0 -113 -107 -116 -162v-20c23 41 72 63 122 63zM226 290c58 0 100 43 100 109s-42 108 -100 108
c-66 0 -100 -51 -100 -108c0 -59 35 -109 100 -109z" />
    <glyph glyph-name="uni2077" unicode="&#x2077;" horiz-adv-x="393" 
d="M34 742h333v-57l-222 -451h-77l222 445h-256v63z" />
    <glyph glyph-name="uni2078" unicode="&#x2078;" horiz-adv-x="408" 
d="M297 516c53 -20 84 -73 84 -134c0 -93 -70 -156 -176 -156s-178 63 -178 156c0 62 33 114 85 134c-37 21 -58 58 -58 104c0 76 59 129 151 129s150 -54 150 -129c0 -47 -22 -83 -58 -104zM205 688c-48 0 -80 -31 -80 -73c0 -43 33 -76 80 -76c46 0 79 32 79 76
c0 43 -33 73 -79 73zM205 289c61 0 105 38 105 97c0 55 -44 97 -105 97c-62 0 -105 -41 -105 -97c0 -58 42 -97 105 -97z" />
    <glyph glyph-name="uni2079" unicode="&#x2079;" horiz-adv-x="431" 
d="M216 749c127 0 183 -108 183 -264c0 -153 -53 -258 -183 -258c-89 0 -153 52 -162 131h70c6 -44 43 -69 93 -69c81 0 110 67 110 163v22c-24 -42 -72 -65 -124 -65c-92 0 -161 69 -161 169c0 103 72 171 174 171zM216 470c65 0 99 51 99 108c0 58 -34 109 -98 109
c-60 0 -101 -44 -101 -109s40 -108 100 -108z" />
    <glyph glyph-name="fraction" unicode="&#x2044;" horiz-adv-x="199" 
d="M-131 0l384 750h77l-384 -750h-77z" />
    <glyph glyph-name="onehalf" unicode="&#xbd;" horiz-adv-x="951" 
d="M620 750h77l-384 -750h-77zM242 254h-67v398l-104 -60v68l109 65h62v-471zM715 62h197v-62h-291v57l167 185c36 40 52 67 52 100c0 49 -32 78 -81 78c-53 0 -85 -38 -85 -91h-67c0 88 61 149 152 149c90 0 149 -55 149 -133c0 -48 -20 -86 -70 -143z" />
    <glyph glyph-name="onequarter" unicode="&#xbc;" horiz-adv-x="904" 
d="M236 0l384 750h77l-384 -750h-77zM71 592v68l109 65h62v-471h-67v398zM529 93v57l179 321h72l-178 -319h149v163h66v-163h58v-59h-58v-93h-66v93h-222z" />
    <glyph glyph-name="threequarters" unicode="&#xbe;" horiz-adv-x="971" 
d="M687 750h77l-384 -750h-77zM357 385c0 -83 -65 -138 -159 -138c-97 0 -156 60 -154 149h69c-2 -59 33 -91 86 -91c52 0 89 33 89 81c0 53 -40 81 -96 81h-34v60h30c60 0 90 32 90 75c0 46 -34 73 -80 73c-57 0 -84 -38 -83 -91h-68c-4 89 57 148 151 148
c84 0 150 -46 150 -128c0 -44 -23 -83 -66 -104c46 -19 75 -59 75 -115zM884 152h58v-59h-58v-93h-66v93h-222v57l179 321h72l-178 -319h149v163h66v-163z" />
    <glyph glyph-name="oneeighth" unicode="&#x215b;" horiz-adv-x="980" 
d="M620 750h77l-384 -750h-77zM242 254h-67v398l-104 -60v68l109 65h62v-471zM864 262c49 -19 78 -69 78 -124c0 -87 -67 -145 -166 -145c-98 0 -165 58 -165 145c0 56 31 105 78 124c-32 19 -53 52 -53 95c0 71 54 121 140 121c88 0 141 -51 141 -121
c0 -41 -19 -75 -53 -95zM776 420c-43 0 -73 -28 -73 -67c0 -40 31 -69 73 -69c44 0 74 29 74 69s-31 67 -74 67zM776 51c57 0 98 36 98 89c0 52 -41 90 -98 90c-56 0 -96 -38 -96 -90s39 -89 96 -89z" />
    <glyph glyph-name="threeeighths" unicode="&#x215c;" horiz-adv-x="1047" 
d="M687 750h77l-384 -750h-77zM357 385c0 -83 -65 -138 -159 -138c-97 0 -156 60 -154 149h69c-2 -59 33 -91 86 -91c52 0 89 33 89 81c0 53 -40 81 -96 81h-34v60h30c60 0 90 32 90 75c0 46 -34 73 -80 73c-57 0 -84 -38 -83 -91h-68c-4 89 57 148 151 148
c84 0 150 -46 150 -128c0 -44 -23 -83 -66 -104c46 -19 75 -59 75 -115zM931 262c49 -19 78 -69 78 -124c0 -87 -67 -145 -166 -145c-98 0 -165 58 -165 145c0 56 31 105 78 124c-32 19 -53 52 -53 95c0 71 54 121 140 121c88 0 141 -51 141 -121c0 -41 -19 -75 -53 -95z
M843 420c-43 0 -73 -28 -73 -67c0 -40 31 -69 73 -69c44 0 74 29 74 69s-31 67 -74 67zM843 51c57 0 98 36 98 89c0 52 -41 90 -98 90c-56 0 -96 -38 -96 -90s39 -89 96 -89z" />
    <glyph glyph-name="fiveeighths" unicode="&#x215d;" horiz-adv-x="1028" 
d="M668 750h77l-384 -750h-77zM362 409c0 -97 -67 -162 -162 -162c-96 0 -158 64 -158 151h69c-2 -50 33 -92 88 -92s93 42 93 102c0 61 -40 101 -95 101c-38 0 -67 -18 -78 -47h-67l38 263h248v-59h-193l-18 -125c20 16 47 26 78 26c94 0 157 -65 157 -158zM912 262
c49 -19 78 -69 78 -124c0 -87 -67 -145 -166 -145c-98 0 -165 58 -165 145c0 56 31 105 78 124c-32 19 -53 52 -53 95c0 71 54 121 140 121c88 0 141 -51 141 -121c0 -41 -19 -75 -53 -95zM824 420c-43 0 -73 -28 -73 -67c0 -40 31 -69 73 -69c44 0 74 29 74 69
s-31 67 -74 67zM824 51c57 0 98 36 98 89c0 52 -41 90 -98 90c-56 0 -96 -38 -96 -90s39 -89 96 -89z" />
    <glyph glyph-name="seveneighths" unicode="&#x215e;" horiz-adv-x="939" 
d="M579 750h77l-384 -750h-77zM357 725v-54l-188 -417h-73l189 412h-240v59h312zM823 262c49 -19 78 -69 78 -124c0 -87 -67 -145 -166 -145c-98 0 -165 58 -165 145c0 56 31 105 78 124c-32 19 -53 52 -53 95c0 71 54 121 140 121c88 0 141 -51 141 -121
c0 -41 -19 -75 -53 -95zM735 420c-43 0 -73 -28 -73 -67c0 -40 31 -69 73 -69c44 0 74 29 74 69s-31 67 -74 67zM735 51c57 0 98 36 98 89c0 52 -41 90 -98 90c-56 0 -96 -38 -96 -90s39 -89 96 -89z" />
    <glyph glyph-name="asterisk" unicode="*" horiz-adv-x="411" 
d="M59 578l19 60l106 -45l-12 115h68l-13 -115l105 45l19 -60l-113 -26l78 -86l-53 -38l-57 100l-58 -100l-52 38l77 86z" />
    <glyph glyph-name="backslash" unicode="\" horiz-adv-x="394" 
d="M390 0h-79l-307 725h78z" />
    <glyph glyph-name="periodcentered" unicode="&#xb7;" horiz-adv-x="310" 
d="M90 273c0 42 32 74 72 74c41 0 75 -32 75 -74c0 -40 -34 -72 -75 -72c-40 0 -72 32 -72 72z" />
    <glyph glyph-name="bullet" unicode="&#x2022;" horiz-adv-x="396" 
d="M69 269c0 74 57 131 127 131c71 0 131 -57 131 -131c0 -70 -60 -127 -131 -127c-70 0 -127 57 -127 127z" />
    <glyph glyph-name="colon" unicode=":" horiz-adv-x="276" 
d="M94 403v107h103v-107h-103zM94 0v107h103v-107h-103z" />
    <glyph glyph-name="comma" unicode="," horiz-adv-x="277" 
d="M79 -126v37c42 0 68 27 63 89h-63v114h119v-111c0 -111 -66 -129 -119 -129z" />
    <glyph glyph-name="ellipsis" unicode="&#x2026;" horiz-adv-x="652" 
d="M74 0v107h103v-107h-103zM274 0v107h103v-107h-103zM474 0v107h103v-107h-103z" />
    <glyph glyph-name="exclam" unicode="!" horiz-adv-x="317" 
d="M135 196l-17 314v215h81v-215l-16 -314h-48zM112 0v86h94v-86h-94z" />
    <glyph glyph-name="exclamdown" unicode="&#xa1;" horiz-adv-x="317" 
d="M112 725h94v-86h-94v86zM135 529h48l16 -314v-215h-81v215z" />
    <glyph glyph-name="numbersign" unicode="#" horiz-adv-x="651" 
d="M592 420h-107l-22 -93h111l-21 -81h-109l-58 -246h-81l58 246l-138 -1l-58 -245h-82l58 245h-104l21 81h102l22 93h-105l21 81h104l58 246h81l-58 -246l138 1l58 245h81l-58 -245h109zM382 327l22 93l-138 -1l-22 -93z" />
    <glyph glyph-name="period" unicode="." horiz-adv-x="252" 
d="M74 0v107h103v-107h-103z" />
    <glyph glyph-name="question" unicode="?" horiz-adv-x="563" 
d="M59 523c-2 127 85 212 220 212s224 -74 224 -187c0 -74 -37 -121 -95 -178c-69 -67 -106 -93 -106 -167v-19h-78v19c0 99 62 145 124 207c54 53 74 88 74 135c0 78 -55 121 -143 121c-85 0 -146 -54 -144 -143h-76zM215 0v104h103v-104h-103z" />
    <glyph glyph-name="questiondown" unicode="&#xbf;" horiz-adv-x="563" 
d="M347 616v-106h-103v106h103zM503 71c3 -129 -82 -209 -222 -209c-132 0 -222 76 -222 190c0 78 39 128 96 184c72 72 105 98 105 172v20h79v-20c0 -99 -58 -146 -124 -212c-55 -55 -75 -91 -75 -142c0 -77 57 -121 141 -121c102 0 148 53 146 138h76z" />
    <glyph glyph-name="quotedbl" unicode="&#x22;" horiz-adv-x="368" 
d="M125 439h-40l-20 158v138h80v-138zM284 439h-41l-20 158v138h81v-138z" />
    <glyph glyph-name="quotesingle" unicode="'" horiz-adv-x="210" 
d="M125 439h-40l-20 158v138h80v-138z" />
    <glyph glyph-name="semicolon" unicode=";" horiz-adv-x="287" 
d="M98 393v107h103v-107h-103zM94 -114v36c43 0 67 25 63 78h-63v107h113v-104c0 -100 -61 -117 -113 -117z" />
    <glyph glyph-name="slash" unicode="/" horiz-adv-x="403" 
d="M0 0l307 725h78l-307 -725h-78z" />
    <glyph glyph-name="underscore" unicode="_" horiz-adv-x="361" 
d="M0 -53v53h361v-53h-361z" />
    <glyph glyph-name="braceleft" unicode="{" horiz-adv-x="333" 
d="M290 -129c-117 0 -156 62 -156 171v147c0 105 -54 102 -80 106v72c21 5 80 8 80 108v145c0 115 33 171 156 171h26v-63h-25c-72 0 -87 -35 -87 -101v-178c0 -67 -35 -106 -85 -113v-2c44 -9 85 -49 85 -111v-178c0 -61 17 -110 88 -110h26v-64h-28z" />
    <glyph glyph-name="braceright" unicode="}" horiz-adv-x="333" 
d="M15 -129v64h26c70 0 88 49 88 110v178c0 62 41 102 84 111v2c-49 7 -84 46 -84 113v178c0 66 -15 101 -87 101h-26v63h26c124 0 156 -56 156 -171v-145c0 -100 60 -103 81 -108v-72c-26 -4 -81 -1 -81 -106v-147c0 -109 -38 -171 -156 -171h-27z" />
    <glyph glyph-name="bracketleft" unicode="[" horiz-adv-x="299" 
d="M95 -114v901h188v-62h-119v-777h119v-62h-188z" />
    <glyph glyph-name="bracketright" unicode="]" horiz-adv-x="300" 
d="M16 -114v62h119v777h-119v62h188v-901h-188z" />
    <glyph glyph-name="parenleft" unicode="(" horiz-adv-x="310" 
d="M247 -120c-127 137 -176 302 -176 469c0 201 70 355 176 469l48 -37c-118 -152 -147 -287 -147 -432c0 -194 59 -318 147 -432z" />
    <glyph glyph-name="parenright" unicode=")" horiz-adv-x="310" 
d="M62 -120l-48 37c119 152 147 287 147 432c0 194 -59 318 -147 432l48 37c128 -137 177 -302 177 -469c0 -201 -71 -355 -177 -469z" />
    <glyph glyph-name="braceleft.case" horiz-adv-x="318" 
d="M290 -126c-117 0 -156 62 -156 171v147c0 104 -54 102 -80 106v72c21 4 80 8 80 107v146c0 114 33 171 156 171h26v-63h-25c-72 0 -87 -35 -87 -102v-177c0 -67 -35 -107 -85 -113v-2c44 -9 85 -50 85 -112v-177c0 -61 17 -111 88 -111h26v-63h-28z" />
    <glyph glyph-name="braceright.case" horiz-adv-x="322" 
d="M4 -126v63h27c69 0 88 50 88 111v177c0 62 40 103 83 112v2c-48 6 -83 46 -83 113v177c0 67 -15 102 -88 102h-26v63h26c124 0 156 -57 156 -171v-146c0 -99 61 -103 82 -107v-72c-27 -4 -82 -2 -82 -106v-147c0 -109 -37 -171 -156 -171h-27z" />
    <glyph glyph-name="emdash" unicode="&#x2014;" horiz-adv-x="886" 
d="M70 273v57h745v-57h-745z" />
    <glyph glyph-name="endash" unicode="&#x2013;" horiz-adv-x="686" 
d="M70 273v57h545v-57h-545z" />
    <glyph glyph-name="hyphen" unicode="-" horiz-adv-x="506" 
d="M70 273v57h365v-57h-365z" />
    <glyph glyph-name="guillemotleft" unicode="&#xab;" horiz-adv-x="503" 
d="M71 268l122 203h74l-112 -203l112 -203h-74zM259 268l122 203h74l-113 -203l113 -203h-74z" />
    <glyph glyph-name="guillemotright" unicode="&#xbb;" horiz-adv-x="503" 
d="M246 268l-123 -203h-74l113 203l-113 203h74zM434 268l-123 -203h-74l113 203l-113 203h74z" />
    <glyph glyph-name="guilsinglleft" unicode="&#x2039;" horiz-adv-x="320" 
d="M71 268l122 203h79l-113 -203l113 -203h-79z" />
    <glyph glyph-name="guilsinglright" unicode="&#x203a;" horiz-adv-x="320" 
d="M250 268l-123 -203h-78l113 203l-113 203h78z" />
    <glyph glyph-name="quotedblbase" unicode="&#x201e;" horiz-adv-x="417" 
d="M56 -126v37c42 0 68 27 63 89h-63v114h119v-111c0 -111 -66 -129 -119 -129zM242 -126v37c42 0 68 27 63 89h-63v114h119v-111c0 -111 -66 -129 -119 -129z" />
    <glyph glyph-name="quotedblleft" unicode="&#x201c;" horiz-adv-x="404" 
d="M56 514v104c0 100 61 117 113 117v-36c-43 0 -67 -25 -63 -78h63v-107h-113zM235 514v104c0 100 61 117 113 117v-36c-43 0 -67 -25 -63 -78h63v-107h-113z" />
    <glyph glyph-name="quotedblright" unicode="&#x201d;" horiz-adv-x="404" 
d="M56 505v36c44 0 67 25 63 77h-63v107h113v-104c0 -99 -61 -116 -113 -116zM235 505v36c43 0 67 25 63 77h-63v107h113v-104c0 -99 -61 -116 -113 -116z" />
    <glyph glyph-name="quoteleft" unicode="&#x2018;" horiz-adv-x="226" 
d="M169 735v-36c-43 0 -67 -25 -63 -78h63v-107h-113v104c0 100 61 117 113 117z" />
    <glyph glyph-name="quoteright" unicode="&#x2019;" horiz-adv-x="226" 
d="M56 505v36c44 0 67 25 63 77h-63v107h113v-104c0 -99 -61 -116 -113 -116z" />
    <glyph glyph-name="quotesinglbase" unicode="&#x201a;" horiz-adv-x="226" 
d="M56 -126v37c42 0 68 27 63 89h-63v114h119v-111c0 -111 -66 -129 -119 -129z" />
    <glyph glyph-name="space" unicode=" " horiz-adv-x="230" 
 />
    <glyph glyph-name="uni00A0" unicode="&#xa0;" horiz-adv-x="230" 
 />
    <glyph glyph-name="CR" unicode="&#xd;" horiz-adv-x="249" 
 />
    <glyph glyph-name="Euro" unicode="&#x20ac;" horiz-adv-x="515" 
d="M419 660c-123 0 -208 -64 -244 -168h262l-9 -74h-271c-2 -18 -3 -37 -3 -57c0 -12 0 -24 1 -36h267l-8 -73h-246c32 -116 120 -189 252 -189c26 0 55 3 79 7v-72c-36 -6 -62 -7 -81 -7c-183 1 -302 102 -337 261h-70v73h59c-1 12 -1 24 -1 36c0 20 1 39 3 57h-61v74h75
c42 147 158 239 331 240c31 0 58 -3 82 -7v-73c-20 6 -54 8 -80 8z" />
    <glyph glyph-name="cent" unicode="&#xa2;" horiz-adv-x="554" 
d="M245 0v114c-126 21 -186 117 -186 245c0 150 74 233 186 252v114h64v-111c103 -8 171 -76 185 -171h-80c-12 61 -51 89 -105 98v-357c65 10 96 48 105 97h80c-14 -98 -86 -161 -185 -170v-111h-64zM245 189v346c-79 -22 -103 -88 -103 -173c0 -102 41 -155 103 -173z" />
    <glyph glyph-name="currency" unicode="&#xa4;" horiz-adv-x="557" 
d="M32 140l74 63c-60 77 -57 185 0 259l-73 63l52 50l62 -71c75 56 187 53 260 -1l64 73l51 -51l-71 -62c61 -78 61 -182 1 -259l72 -63l-53 -51l-63 72c-76 -56 -183 -58 -260 0l-61 -72zM134 334c-1 -89 62 -147 144 -146s143 61 143 145s-60 143 -144 143
c-80 0 -142 -54 -143 -142z" />
    <glyph glyph-name="dollar" unicode="$" horiz-adv-x="599" 
d="M526 231c0 -102 -74 -168 -193 -178v-92h-65v93c-125 11 -194 86 -194 193h81c0 -82 55 -124 148 -124c90 0 139 38 139 102c0 53 -35 82 -99 98l-94 24c-114 28 -157 89 -157 163c0 92 65 159 176 169v90h65v-91c105 -11 176 -74 178 -177h-82c-1 63 -49 107 -133 107
c-77 0 -121 -36 -121 -93c0 -53 36 -79 107 -96l92 -24c118 -29 152 -94 152 -164z" />
    <glyph glyph-name="florin" unicode="&#x192;" horiz-adv-x="523" 
d="M426 663c-60 0 -81 -44 -91 -92l-23 -111h146v-67h-160l-67 -333c-19 -94 -79 -136 -144 -136c-38 0 -57 4 -75 8v69c6 -2 25 -6 58 -6c56 0 74 36 85 93l63 305h-103v67h117l27 136c20 97 78 139 148 139c40 0 58 -4 76 -8v-70c-7 2 -24 6 -57 6z" />
    <glyph glyph-name="sterling" unicode="&#xa3;" horiz-adv-x="577" 
d="M222 74h323v-74h-483v79c83 0 149 49 149 136c0 29 -7 71 -25 107h-110v66h77c-22 45 -43 92 -43 151c0 119 86 196 247 196c64 0 112 -12 157 -30v-75c-68 29 -126 34 -163 34c-91 0 -157 -36 -157 -126c0 -53 22 -96 46 -150h205v-66h-178c32 -89 28 -196 -45 -248z
" />
    <glyph glyph-name="yen" unicode="&#xa5;" horiz-adv-x="575" 
d="M17 725h94l176 -328l174 328h94l-193 -352h165v-74h-198v-82h198v-74h-198v-143h-85v143h-198v74h198v82h-198v74h167z" />
    <glyph glyph-name="plus" unicode="+" horiz-adv-x="624" 
d="M349 285v-214h-74v214h-203v68h203v204h74v-204h203v-68h-203z" />
    <glyph glyph-name="minus" unicode="&#x2212;" horiz-adv-x="622" 
d="M73 325h476v-78h-476v78z" />
    <glyph glyph-name="multiply" unicode="&#xd7;" horiz-adv-x="677" 
d="M119 24l-54 53l220 220l-220 220l54 53l219 -219l220 219l53 -53l-220 -220l220 -220l-53 -53l-220 220z" />
    <glyph glyph-name="divide" unicode="&#xf7;" horiz-adv-x="623" 
d="M253 432v118h114v-118h-114zM60 251v78h502v-78h-502zM253 38v118h114v-118h-114z" />
    <glyph glyph-name="equal" unicode="=" horiz-adv-x="568" 
d="M94 352v76h380v-76h-380zM94 152v76h380v-76h-380z" />
    <glyph glyph-name="notequal" unicode="&#x2260;" horiz-adv-x="621" 
d="M526 342h-137l-67 -124h204v-79h-246l-64 -119h-89l64 119h-97v79h139l67 124h-206v79h248l64 119h89l-64 -119h95v-79z" />
    <glyph glyph-name="greater" unicode="&#x3e;" horiz-adv-x="533" 
d="M72 50v94l298 158l-298 143v94l391 -205v-64z" />
    <glyph glyph-name="less" unicode="&#x3c;" horiz-adv-x="533" 
d="M463 70l-391 220v64l391 205v-94l-299 -143l299 -158v-94z" />
    <glyph glyph-name="greaterequal" unicode="&#x2265;" horiz-adv-x="540" 
d="M72 132v94l307 130l-307 132v95l396 -191v-70zM72 0v69h396v-69h-396z" />
    <glyph glyph-name="lessequal" unicode="&#x2264;" horiz-adv-x="541" 
d="M469 132l-396 190v70l396 191v-95l-307 -132l307 -130v-94zM469 0h-396v69h396v-69z" />
    <glyph glyph-name="plusminus" unicode="&#xb1;" horiz-adv-x="595" 
d="M341 336v-174h-87v174h-210v77h210v174h87v-174h212v-77h-212zM44 0v82h509v-82h-509z" />
    <glyph glyph-name="approxequal" unicode="&#x2248;" horiz-adv-x="496" 
d="M73 293c-3 91 49 113 88 113c57 0 116 -48 163 -48c33 0 45 20 45 51h53c4 -91 -53 -115 -97 -115c-62 0 -122 48 -164 48c-28 0 -37 -23 -35 -49h-53zM73 133c-3 91 49 113 88 113c57 0 116 -48 163 -48c33 0 45 20 45 51h53c4 -91 -53 -115 -97 -115
c-62 0 -122 48 -164 48c-28 0 -37 -23 -35 -49h-53z" />
    <glyph glyph-name="asciitilde" unicode="~" horiz-adv-x="496" 
d="M73 233c-3 91 49 113 88 113c57 0 116 -47 163 -47c33 0 45 20 45 50h53c4 -90 -53 -114 -97 -114c-62 0 -122 47 -164 47c-28 0 -37 -23 -35 -49h-53z" />
    <glyph glyph-name="logicalnot" unicode="&#xac;" horiz-adv-x="571" 
d="M449 149v169h-406v75h485v-244h-79z" />
    <glyph glyph-name="emptyset" unicode="&#x2205;" horiz-adv-x="612" 
d="M573 498l-70 -74c34 -45 53 -103 53 -169c0 -151 -99 -264 -249 -264c-65 0 -120 21 -162 56l-66 -70l-41 36l70 74c-34 45 -52 103 -52 168c0 150 99 264 251 264c63 0 117 -20 158 -54l66 69zM133 255c0 -42 10 -80 29 -111l252 267c-28 23 -64 37 -106 37
c-104 0 -175 -82 -175 -193zM481 255c0 44 -11 83 -30 114l-254 -267c30 -25 67 -39 111 -39c102 0 173 81 173 192z" />
    <glyph glyph-name="infinity" unicode="&#x221e;" horiz-adv-x="880" 
d="M224 68c-118 0 -189 89 -189 199s71 200 188 200c105 0 165 -77 217 -147c53 70 112 147 218 147c117 0 187 -92 187 -200c0 -106 -70 -199 -186 -199c-106 0 -166 77 -219 147c-52 -70 -113 -147 -216 -147zM223 134c57 0 102 32 178 133c-73 98 -116 134 -178 134
c-70 0 -122 -52 -122 -134c0 -81 54 -133 122 -133zM657 134c69 0 123 51 123 133s-54 134 -123 134c-61 0 -103 -34 -177 -134c74 -97 115 -133 177 -133z" />
    <glyph glyph-name="integral" unicode="&#x222b;" horiz-adv-x="305" 
d="M11 -135v60h34c50 0 69 29 69 105v588c0 106 49 153 136 153h45v-60h-34c-50 0 -69 -29 -69 -106v-588c0 -105 -49 -152 -134 -152h-47z" />
    <glyph glyph-name="product" unicode="&#x220f;" horiz-adv-x="615" 
d="M572 725v-70h-107v-655h-80v655h-151v-655h-80v655h-110v70h528z" />
    <glyph glyph-name="summation" unicode="&#x2211;" horiz-adv-x="567" 
d="M529 725v-71l-392 -1l214 -330l-214 -331h392v-72h-491v58l223 344l-223 346v57h491z" />
    <glyph glyph-name="radical" unicode="&#x221a;" horiz-adv-x="805" 
d="M72 282h77l114 -262l276 705h212v-69h-163l-281 -706h-80z" />
    <glyph glyph-name="percent" unicode="%" horiz-adv-x="789" 
d="M193 373c-74 0 -134 62 -134 181c0 118 60 180 134 180c73 0 134 -61 134 -180s-61 -181 -134 -181zM117 0l470 725h73l-470 -725h-73zM193 433c43 0 65 53 65 121s-22 122 -65 122c-45 0 -65 -53 -65 -122s20 -121 65 -121zM596 -10c-73 0 -134 62 -134 181
s61 181 135 181c73 0 133 -63 133 -181c0 -119 -60 -181 -134 -181zM597 50c43 0 65 53 65 121c0 69 -22 121 -65 121c-45 0 -66 -53 -66 -121s21 -121 66 -121z" />
    <glyph glyph-name="perthousand" unicode="&#x2030;" horiz-adv-x="1119" 
d="M193 373c-74 0 -134 62 -134 181c0 118 60 180 134 180c73 0 134 -61 134 -180s-61 -181 -134 -181zM117 0l470 725h73l-470 -725h-73zM193 433c43 0 65 53 65 121s-22 122 -65 122c-45 0 -65 -53 -65 -122s20 -121 65 -121zM596 -10c-73 0 -134 62 -134 181
s61 181 135 181c73 0 133 -63 133 -181c0 -119 -60 -181 -134 -181zM926 -10c-74 0 -134 62 -134 181s60 181 134 181s134 -63 134 -181c0 -119 -60 -181 -134 -181zM597 50c43 0 65 53 65 121c0 69 -22 121 -65 121c-45 0 -66 -53 -66 -121s21 -121 66 -121zM926 50
c44 0 65 53 65 121c0 69 -21 121 -65 121s-65 -53 -65 -121s21 -121 65 -121z" />
    <glyph glyph-name="arrowup" unicode="&#x2191;" horiz-adv-x="644" 
d="M31 472l291 289l291 -289l-38 -38l-227 227v-661h-51v661l-229 -226z" />
    <glyph glyph-name="uni2197" unicode="&#x2197;" horiz-adv-x="593" 
d="M67 196l-36 36l442 442h-322v51h411v-409h-53v322z" />
    <glyph glyph-name="arrowright" unicode="&#x2192;" horiz-adv-x="789" 
d="M390 0l-38 38l227 228h-459v51h459l-226 228l37 37l289 -291z" />
    <glyph glyph-name="uni2198" unicode="&#x2198;" horiz-adv-x="594" 
d="M473 51l-442 443l36 35l442 -442l1 323h53l-2 -410l-410 -2v53h322z" />
    <glyph glyph-name="arrowdown" unicode="&#x2193;" horiz-adv-x="644" 
d="M31 265l37 37l229 -227v625h51v-625l227 228l38 -37l-291 -290z" />
    <glyph glyph-name="uni2199" unicode="&#x2199;" horiz-adv-x="594" 
d="M121 51h321v-51h-409v410h50v-323l444 442l36 -35z" />
    <glyph glyph-name="arrowleft" unicode="&#x2190;" horiz-adv-x="788" 
d="M208 266l228 -228l-38 -38l-289 291l289 291l37 -37l-227 -228h460v-51h-460z" />
    <glyph glyph-name="uni2196" unicode="&#x2196;" horiz-adv-x="594" 
d="M526 195l-443 442v-322h-50v410h410v-52h-322l442 -442z" />
    <glyph glyph-name="arrowright.ss03" horiz-adv-x="1286" 
d="M887 0l-38 38l227 228h-946v51h946l-226 228l37 37l289 -291z" />
    <glyph glyph-name="arrowleft.ss03" horiz-adv-x="1285" 
d="M208 266l228 -228l-38 -38l-289 291l289 291l37 -37l-227 -228h947v-51h-947z" />
    <glyph glyph-name="uni25CF" unicode="&#x25cf;" horiz-adv-x="941" 
d="M471 -18c-209 0 -377 168 -377 377c0 208 168 375 377 375c208 0 375 -167 375 -375c0 -209 -167 -377 -375 -377z" />
    <glyph glyph-name="circle" unicode="&#x25cb;" horiz-adv-x="934" 
d="M467 -10c-207 0 -373 167 -373 373c0 205 167 372 373 372c205 0 373 -167 373 -372s-168 -373 -373 -373zM466 46c175 0 317 143 317 317s-142 315 -317 315c-174 0 -315 -141 -315 -315c0 -175 141 -317 315 -317z" />
    <glyph glyph-name="lozenge" unicode="&#x25ca;" horiz-adv-x="705" 
d="M318 0l-224 363l224 362h70l223 -362l-223 -363h-70zM545 363l-193 313l-192 -313l192 -311z" />
    <glyph glyph-name="filledbox" unicode="&#x25a0;" horiz-adv-x="888" 
d="M94 725h699v-724h-699v724z" />
    <glyph glyph-name="uni25A1" unicode="&#x25a1;" horiz-adv-x="889" 
d="M94 725h700v-725h-700v725zM150 667v-609h587v609h-587z" />
    <glyph glyph-name="triagup" unicode="&#x25b2;" horiz-adv-x="1013" 
d="M65 0h883l-443 734z" />
    <glyph glyph-name="uni25B3" unicode="&#x25b3;" horiz-adv-x="1014" 
d="M65 0l441 735l443 -735h-884zM157 53h698l-349 580z" />
    <glyph glyph-name="uni262E" unicode="&#x262e;" horiz-adv-x="985" 
d="M492 -9c-206 0 -372 167 -372 373c0 204 167 371 372 371c206 0 373 -167 373 -371c0 -206 -167 -373 -373 -373zM205 230l259 157v292c-161 -15 -288 -150 -288 -315c0 -48 11 -95 29 -134zM782 231c18 40 29 84 29 133c0 165 -126 299 -287 314v-291zM464 47v270
l-227 -141c51 -71 134 -120 227 -129zM524 48c94 9 175 58 226 129l-226 140v-269z" />
    <glyph glyph-name="uni2713" unicode="&#x2713;" horiz-adv-x="767" 
d="M656 548l50 -53l-432 -418l-214 237l51 47l164 -183z" />
    <glyph glyph-name="at" unicode="@" horiz-adv-x="962" 
d="M660 502l-19 -256c-4 -65 27 -84 62 -84c74 0 125 81 125 205c0 185 -129 307 -323 307c-213 0 -353 -149 -353 -364c0 -197 117 -350 345 -350c59 0 156 10 245 53v-63c-82 -41 -183 -51 -245 -51c-252 0 -418 163 -418 413c0 252 170 423 424 423
c238 0 394 -147 394 -368c0 -156 -79 -263 -195 -263c-66 0 -102 36 -111 73c-25 -43 -76 -71 -132 -71c-80 0 -155 60 -155 190c0 129 73 217 172 217c53 0 97 -25 117 -59l12 48h55zM468 165c74 0 116 65 116 156c0 83 -35 135 -99 135c-72 0 -112 -65 -112 -159
c0 -86 34 -132 95 -132z" />
    <glyph glyph-name="ampersand" unicode="&#x26;" horiz-adv-x="782" 
d="M712 0h-103l-75 80c-59 -61 -143 -90 -232 -90c-138 0 -224 73 -224 184c0 108 83 165 115 189l45 33l-30 31c-23 22 -74 71 -74 149c0 93 74 158 179 158c97 0 171 -59 171 -152c0 -87 -60 -133 -90 -157l-46 -37l177 -189c19 48 24 116 20 195h155v-64h-79
c-3 -81 -15 -145 -41 -190zM312 666c-60 0 -99 -37 -99 -90c0 -57 44 -93 60 -108l26 -28l40 31c23 17 67 48 67 105c0 55 -42 90 -94 90zM314 61c70 0 128 29 170 72l-198 211l-50 -38c-28 -21 -75 -55 -75 -121c0 -79 64 -124 153 -124z" />
    <glyph glyph-name="paragraph" unicode="&#xb6;" horiz-adv-x="592" 
d="M461 662v-742h-70v742h-97v-742h-71v447c-107 0 -179 71 -179 179c0 107 72 179 179 179h313v-63h-75z" />
    <glyph glyph-name="section" unicode="&#xa7;" horiz-adv-x="519" 
d="M387 189c53 -25 72 -69 72 -116c0 -95 -80 -155 -196 -155c-121 0 -198 66 -205 159h80c12 -65 60 -90 124 -90c67 0 110 31 110 78c0 41 -25 60 -79 74l-80 20c-94 23 -138 74 -138 142c0 51 30 96 77 119c-53 24 -77 63 -77 117c0 91 73 149 183 149
c112 0 185 -60 188 -151h-81c-4 53 -43 83 -108 83c-66 0 -96 -30 -96 -72c0 -48 39 -62 89 -74l67 -16c95 -23 142 -73 142 -149c0 -49 -28 -93 -72 -118zM278 232c62 0 95 28 95 71c0 55 -53 76 -112 76c-76 0 -100 -35 -100 -69c0 -54 53 -78 117 -78z" />
    <glyph glyph-name="copyright" unicode="&#xa9;" horiz-adv-x="865" 
d="M815 363c0 -223 -163 -373 -382 -373s-383 148 -383 371c0 224 165 374 383 374s382 -149 382 -372zM757 362c0 192 -140 319 -324 319c-185 0 -325 -128 -325 -320c0 -191 140 -317 325 -317c184 0 324 127 324 318zM611 300c-12 -82 -84 -137 -172 -137
c-109 0 -187 86 -187 198c0 99 60 199 187 199c93 0 161 -57 172 -136h-69c-12 58 -57 81 -102 81c-78 0 -120 -70 -120 -146c0 -77 43 -139 118 -139c49 0 93 24 104 80h69z" />
    <glyph glyph-name="registered" unicode="&#xae;" horiz-adv-x="491" 
d="M245 279c-129 0 -230 93 -230 226c0 134 101 225 230 225c132 0 232 -91 232 -225c0 -133 -100 -226 -232 -226zM247 326c106 0 179 72 179 179c0 114 -80 180 -181 180c-105 0 -181 -71 -181 -181c0 -114 83 -178 183 -178zM161 386v235h103c46 0 80 -30 80 -76
c0 -34 -19 -59 -47 -70l46 -89h-49l-40 82h-50v-82h-43zM203 502h53c28 0 45 17 45 41c0 26 -20 40 -45 40h-53v-81z" />
    <glyph glyph-name="trademark" unicode="&#x2122;" horiz-adv-x="676" 
d="M24 672v53h250v-53h-95v-272h-60v272h-95zM331 400v325h73l89 -255l88 255h71v-325h-59v82c0 50 2 101 5 134l-76 -216h-61l-74 216c4 -36 4 -87 4 -134v-82h-60z" />
    <glyph glyph-name="degree" unicode="&#xb0;" horiz-adv-x="364" 
d="M330 588c0 -87 -69 -144 -150 -144s-146 61 -146 144c0 79 54 143 146 143c88 0 150 -61 150 -143zM269 588c0 51 -39 87 -88 87c-47 0 -86 -36 -86 -87c0 -50 39 -87 86 -87c46 0 88 37 88 87z" />
    <glyph glyph-name="bar" unicode="|" horiz-adv-x="294" 
d="M110 -33v783h76v-783h-76z" />
    <glyph glyph-name="brokenbar" unicode="&#xa6;" horiz-adv-x="294" 
d="M110 451v299h76v-299h-76zM110 -33v298h76v-298h-76z" />
    <glyph glyph-name="dagger" unicode="&#x2020;" horiz-adv-x="321" 
d="M189 580v-265h-56v265h-99v51h99v94h56v-94h98v-51h-98z" />
    <glyph glyph-name="daggerdbl" unicode="&#x2021;" horiz-adv-x="321" 
d="M287 580h-99v-120h99v-51h-99v-94h-56v94h-98v51h98v120h-98v51h98v94h56v-94h99v-51z" />
    <glyph glyph-name="estimated" unicode="&#x212e;" horiz-adv-x="789" 
d="M723 229c-34 -142 -162 -238 -321 -238c-209 0 -346 150 -343 369c2 212 133 365 343 365c188 0 329 -125 329 -336c1 -16 1 -38 0 -53h-570v-184c44 -78 137 -122 241 -122c134 0 245 80 277 199h44zM161 558v-186h469v205c-51 69 -136 110 -234 108
c-100 -2 -184 -50 -235 -127z" />
    <glyph glyph-name="uni2116" unicode="&#x2116;" horiz-adv-x="1031" 
d="M624 731c100 0 166 -73 166 -170c0 -103 -73 -168 -166 -168s-166 65 -166 168c0 97 65 170 166 170zM322 513v212h63v-326h-57l-148 212v-212h-64v326h58zM864 725h85v-79h-85v79zM624 442c54 0 98 43 98 122c0 70 -37 119 -97 119c-58 0 -101 -42 -101 -119
c0 -78 43 -122 100 -122zM864 399v79h85v-79h-85z" />
    <glyph glyph-name="asciicircum" unicode="^" horiz-adv-x="409" 
d="M299 471l-95 180l-96 -180h-73l138 254h63l137 -254h-74z" />
    <glyph glyph-name="uniF8FF" unicode="&#xf8ff;" horiz-adv-x="728" 
d="M474 630c-43 -53 -111 -60 -111 -60c0 10 -11 60 31 115c51 67 119 66 119 66s11 -62 -39 -121zM252 0c-92 0 -194 188 -194 341c0 147 93 227 181 227c56 0 90 -33 128 -33c39 0 70 35 139 35c100 0 144 -75 144 -75s-82 -41 -82 -142c0 -113 101 -153 101 -153
s-59 -199 -167 -199c-42 0 -77 30 -124 30c-48 0 -89 -31 -126 -31z" />
    <glyph glyph-name="uni2116.ss03" horiz-adv-x="1297" 
d="M987 735c147 0 238 -112 238 -236c0 -131 -100 -232 -238 -232s-238 101 -238 232c0 124 90 236 238 236zM545 148v577h83v-725h-83l-359 578v-578h-83v725h83zM987 340c92 0 154 71 154 162c0 86 -57 160 -153 160c-95 0 -155 -70 -155 -161c0 -90 62 -161 154 -161z
M837 76v72h299v-72h-299z" />
    <glyph glyph-name="uni0308" unicode="&#x308;" horiz-adv-x="0" 
d="M-374 758v85h101v-85h-101zM-178 758v85h101v-85h-101z" />
    <glyph glyph-name="uni0307" unicode="&#x307;" horiz-adv-x="0" 
d="M-179 757v85h101v-85h-101z" />
    <glyph glyph-name="gravecomb" unicode="&#x300;" horiz-adv-x="0" 
d="M-45 725l-189 109l39 64l177 -132z" />
    <glyph glyph-name="acutecomb" unicode="&#x301;" horiz-adv-x="0" 
d="M-218 725l-26 41l176 132l39 -64z" />
    <glyph glyph-name="uni030B" unicode="&#x30b;" horiz-adv-x="0" 
d="M-434 725l-26 41l175 132l40 -64zM-254 725l-26 41l175 132l39 -64z" />
    <glyph glyph-name="uni0302" unicode="&#x302;" horiz-adv-x="0" 
d="M-446 763l119 124h57l118 -123l-42 -39l-105 110l-106 -110z" />
    <glyph glyph-name="uni030C" unicode="&#x30c;" horiz-adv-x="0" 
d="M-434 858l43 39l104 -110l105 110l42 -39l-118 -123h-57z" />
    <glyph glyph-name="uni0306" unicode="&#x306;" horiz-adv-x="0" 
d="M-37 866c0 -82 -59 -141 -145 -141s-144 59 -144 141h57c0 -52 39 -87 87 -87c49 0 88 35 88 87h57z" />
    <glyph glyph-name="uni030A" unicode="&#x30a;" horiz-adv-x="0" 
d="M-40 775c0 -63 -50 -108 -111 -108s-110 45 -110 108c0 62 42 109 110 109s111 -47 111 -109zM-89 775c0 35 -25 63 -62 63s-62 -28 -62 -63c0 -34 25 -63 62 -63s62 29 62 63z" />
    <glyph glyph-name="tildecomb" unicode="&#x303;" horiz-adv-x="0" 
d="M-132 729c-53 -3 -94 40 -139 37c-24 -1 -37 -13 -51 -32l-36 26c24 44 53 69 91 70c51 4 90 -39 134 -37c25 1 41 18 52 33l37 -27c-23 -43 -51 -68 -88 -70z" />
    <glyph glyph-name="uni0304" unicode="&#x304;" horiz-adv-x="0" 
d="M-343 766v56h275v-56h-275z" />
    <glyph glyph-name="uni0312" unicode="&#x312;" horiz-adv-x="0" 
d="M-381 927v-25c-32 0 -50 -23 -46 -65h46v-78h-84v76c0 79 48 92 84 92z" />
    <glyph glyph-name="uni0326" unicode="&#x326;" horiz-adv-x="0" 
d="M-173 -212v25c31 0 49 23 45 53h-45v74h84v-69c0 -70 -49 -83 -84 -83z" />
    <glyph glyph-name="uni0327" unicode="&#x327;" horiz-adv-x="0" 
d="M-130 -43c41 7 92 -15 92 -67c0 -85 -111 -94 -159 -59v44c29 -30 106 -31 106 16c0 24 -29 46 -88 30v22l49 86h24v-27z" />
    <glyph glyph-name="uni0328" unicode="&#x328;" horiz-adv-x="0" 
d="M-351 -106c0 51 37 104 114 132l16 -26c-48 -21 -72 -57 -72 -94c0 -38 26 -49 50 -49c7 0 17 1 24 3v-46c-7 -2 -21 -5 -36 -5c-64 0 -96 38 -96 85z" />
    <glyph glyph-name="uni0335" unicode="&#x335;" horiz-adv-x="0" 
d="M-377 294v56h318v-56h-318z" />
    <glyph glyph-name="uni0336" unicode="&#x336;" horiz-adv-x="0" 
 />
    <glyph glyph-name="uni0337" unicode="&#x337;" horiz-adv-x="0" 
d="M-388 0l307 725h78l-307 -725h-78z" />
    <glyph glyph-name="uni0338" unicode="&#x338;" horiz-adv-x="0" 
d="M-388 0l307 725h78l-307 -725h-78z" />
    <glyph glyph-name="acute" unicode="&#xb4;" horiz-adv-x="410" 
d="M193 725l-26 41l176 132l39 -64z" />
    <glyph glyph-name="breve" unicode="&#x2d8;" horiz-adv-x="363" 
d="M326 866c0 -82 -59 -141 -145 -141s-144 59 -144 141h57c0 -52 39 -87 87 -87c49 0 88 35 88 87h57z" />
    <glyph glyph-name="caron" unicode="&#x2c7;" horiz-adv-x="588" 
d="M154 858l43 39l104 -110l105 110l42 -39l-118 -123h-57z" />
    <glyph glyph-name="cedilla" unicode="&#xb8;" horiz-adv-x="236" 
d="M106 -43c41 7 92 -15 92 -67c0 -85 -111 -94 -159 -59v44c29 -30 106 -31 106 16c0 24 -29 46 -88 30v22l49 86h24v-27z" />
    <glyph glyph-name="circumflex" unicode="&#x2c6;" horiz-adv-x="600" 
d="M154 763l119 124h57l118 -123l-42 -39l-105 110l-106 -110z" />
    <glyph glyph-name="dieresis" unicode="&#xa8;" horiz-adv-x="451" 
d="M77 758v85h101v-85h-101zM273 758v85h101v-85h-101z" />
    <glyph glyph-name="dotaccent" unicode="&#x2d9;" horiz-adv-x="256" 
d="M77 757v85h101v-85h-101z" />
    <glyph glyph-name="grave" unicode="`" horiz-adv-x="567" 
d="M323 725l-189 109l39 64l177 -132z" />
    <glyph glyph-name="hungarumlaut" unicode="&#x2dd;" horiz-adv-x="593" 
d="M159 725l-26 41l175 132l40 -64zM339 725l-26 41l175 132l39 -64z" />
    <glyph glyph-name="macron" unicode="&#xaf;" horiz-adv-x="428" 
d="M69 766v56h275v-56h-275z" />
    <glyph glyph-name="ogonek" unicode="&#x2db;" horiz-adv-x="553" 
d="M202 -106c0 51 37 104 114 132l16 -26c-48 -21 -72 -57 -72 -94c0 -38 26 -49 50 -49c7 0 17 1 24 3v-46c-7 -2 -21 -5 -36 -5c-64 0 -96 38 -96 85z" />
    <glyph glyph-name="ring" unicode="&#x2da;" horiz-adv-x="301" 
d="M261 775c0 -63 -50 -108 -111 -108s-110 45 -110 108c0 62 42 109 110 109s111 -47 111 -109zM212 775c0 35 -25 63 -62 63s-62 -28 -62 -63c0 -34 25 -63 62 -63s62 29 62 63z" />
    <glyph glyph-name="tilde" unicode="&#x2dc;" horiz-adv-x="391" 
d="M259 729c-53 -3 -94 40 -139 37c-24 -1 -37 -13 -51 -32l-36 26c24 44 53 69 91 70c51 4 90 -39 134 -37c25 1 41 18 52 33l37 -27c-23 -43 -51 -68 -88 -70z" />
    </font>
</defs>
</svg>
